<svg xmlns="http://www.w3.org/2000/svg" viewBox="0 0 1366 568.4"><style>.st0{display:none}.st1{display:inline}.st2{fill:#333033}.st3{fill:#7aced2}.st4{fill:#f1948b}.st5{fill:#bb9570}.st6{fill:#ee6b54}.st7{fill:#537f69}.st8{fill:#f4ce81}.st9{fill:#978f90}.st10{fill:#f4ce81}.st10,.st11,.st12{display:inline}.st11{fill:#ee6b54}.st12{fill:#81cacd}.st13{display:none;fill:none;stroke:#333033;stroke-width:7;stroke-miterlimit:10}.st14{display:none;fill:#333033}.st15{fill:#ed6e56}.st16{display:none;fill:#f4ce81}.st17,.st18{fill:#fff}.st18{display:inline}.st19{font-family:&amp;apos;SegoeUI-Bold&amp;apos;}.st20{font-size:58px}.st21{display:inline;fill:#333033}.st22{font-family:&amp;apos;SegoeUIBlack&amp;apos;}.st23{display:inline;fill:#7aced2}.st24{fill:#bb9570}.st24,.st25,.st26{display:inline}.st25{fill:#537f69}.st26{fill:#f1948b}.st27{fill:none;stroke:#333033;stroke-width:7;stroke-miterlimit:10}</style><g id="Layer_3"><g id="XMLID_393_" class="st0"><g id="XMLID_394_" class="st1"><path id="XMLID_395_" class="st2" d="M-1535.7-1024.9h624l-118.2-105.1h-345.8z"/><path id="XMLID_396_" class="st3" d="M-1697.7-1130h162v105.1h-162z"/><path id="XMLID_397_" class="st4" d="M-1375.7-1130l-160 105.1V-1130z"/><path id="XMLID_398_" class="st5" d="M-755.7-1024.9V-1130l-166 105.1z"/><path id="XMLID_399_" class="st6" d="M-1029.9-1130l118.2 105.1 156-105.1z"/><path id="XMLID_400_" class="st3" d="M-755.7-1130h424v105.1h-424z"/><path id="XMLID_401_" class="st2" d="M-331.7-1024.9l-136-34.7 136-70.4z"/><path id="XMLID_402_" class="st7" d="M-1535.7-579.8h624l-118.2-105h-345.8z"/><path id="XMLID_403_" class="st8" d="M-1697.7-684.8h162v105.1h-162z"/><path id="XMLID_404_" class="st3" d="M-1375.7-684.8l-160 105v-105z"/><path id="XMLID_405_" class="st4" d="M-755.7-579.8v-105l-166 105z"/><path id="XMLID_406_" class="st5" d="M-1029.9-684.8l118.2 105 156-105z"/><path id="XMLID_407_" class="st6" d="M-755.7-684.8h424v105h-424z"/><path id="XMLID_408_" class="st9" d="M-331.7-579.8l-136-34.7 136-70.3z"/></g><g id="XMLID_409_" class="st1"><path id="XMLID_410_" class="st8" d="M-1535.7-39.2h624l-118.2-105.1h-345.8z"/><path id="XMLID_411_" class="st2" d="M-1697.7-144.3h162v105.1h-162z"/><path id="XMLID_412_" class="st6" d="M-1375.7-144.3l-160 105.1v-105.1z"/><path id="XMLID_413_" class="st7" d="M-755.7-39.2v-105.1l-166 105.1z"/><path id="XMLID_414_" class="st3" d="M-1029.9-144.3l118.2 105.1 156-105.1z"/><path id="XMLID_415_" class="st4" d="M-755.7-144.3h424v105.1h-424z"/><path id="XMLID_416_" class="st8" d="M-331.7-39.2l-136-34.7 136-70.4z"/></g></g><g id="XMLID_481_" class="st0"><path id="XMLID_482_" transform="rotate(-46.188 680.381 -1718.171)" class="st10" d="M630.6-1768h99.6v99.6h-99.6z"/><path id="XMLID_483_" class="st11" d="M696.5-1810.3l108.5-32.8-30.6 109.1z"/><path id="XMLID_484_" class="st12" d="M562.5-1845.4l95 36.4-79.1 64z"/></g><path id="XMLID_480_" class="st13" d="M419-1997h-83.3l83.3 72.5 83.2-72.5z"/><path id="XMLID_444_" class="st14" d="M1102-1239.1l-280.8-138.2-138 69.1-87-51-39-18.1v99.2l-93 3v-102.2H347.1l-63 69.1-207-.7-24-68.4h-54l-42 69.1-45-69.1-53.8 138.2-46.3 72.8-76 24.2v-374.2h1366z"/></g><g id="Layer_2"><g id="XMLID_457_"><path id="XMLID_458_" class="st4" d="M2601.2 149.3l88.6-240.9H2282l-95.1 240.9z"/><path id="XMLID_459_" class="st8" d="M2870 149.3l338-240.9h-410z"/><path id="XMLID_460_" class="st3" d="M2022-91.6l164.9 240.9L2282-91.6z"/><path id="XMLID_461_" class="st7" d="M2798-91.6l72 240.9h-268.8l88.6-240.9z"/><path id="XMLID_462_" class="st2" d="M2186.9 149.3H2022V-91.6l164.9 240.9z"/><path id="XMLID_463_" class="st15" d="M3208-91.6h180v240.9h-518z"/></g><g id="XMLID_464_"><text id="XMLID_488_" transform="translate(2486.54 -1330.85)" class="st2 st19" font-size="46">Some work I’ve done</text></g><g id="XMLID_465_"><text id="XMLID_490_" transform="translate(2109.963 -2353.47)"><tspan x="0" y="0" class="st2 st19" font-size="24">Eu sou a Micaela Pimenta, mas toda gente me trata por Micas, tenho 22 anos e vivo em Braga. </tspan><tspan x="0" y="28.8" class="st2 st19" font-size="24">Acabei o curso recentemente e as disciplinas que mais me cativaram foram as de design entre outras </tspan><tspan x="0" y="57.6" class="st2 st19" font-size="24">que envolveram realizar uma curta e executar modelos em 3D.</tspan><tspan x="0" y="86.4" class="st2 st19" font-size="24">A área que mais me interessa é o design, pensar na elaboração assim como na exucução de icons, </tspan><tspan x="0" y="115.2" class="st2 st19" font-size="24">websites e mesmo video motion.O que me inspira é conseguir tranmitir a mensagem </tspan><tspan x="0" y="144" class="st2 st19" font-size="24">visualmente através do design. Os icons são algo que me dedico mais, talvez por serem pequenos como eu. </tspan><tspan x="0" y="172.8" class="st2 st19" font-size="24">Os meus hobbies são passear a minha cadela ruby, apreciar ao maximo todos os momentos da vida, </tspan><tspan x="0" y="201.6" class="st2 st19" font-size="24">passeando,conhecendo lugares novos, ler, fotografia, instagram, biquinis sou viciada, praia, sol, ondas,</tspan><tspan x="0" y="230.4" class="st2 st19" font-size="24">passar horas no mar, entre muitos outros....</tspan></text></g><text id="XMLID_466_" transform="translate(2626.447 -2489.983)" class="st2 st19" font-size="46">Who am I?</text><text id="XMLID_467_" transform="translate(2441.358 40.995)"><tspan x="0" y="0" class="st17 st19 st20">Let’s work </tspan><tspan x="295.2" y="0" class="st17 st22 st20">together</tspan></text></g><g id="Layer_1"><path id="XMLID_468_" class="st16" d="M0 379.4h1366v340.9H0z"/><g id="contactos"><circle id="XMLID_498_" class="st17" cx="519" cy="632.2" r="35.9"/><circle id="XMLID_499_" class="st17" cx="621.4" cy="632.2" r="35.9"/><circle id="XMLID_500_" class="st17" cx="731.5" cy="632.2" r="35.9"/><circle id="XMLID_501_" class="st17" cx="847" cy="632.2" r="35.9"/></g><g id="XMLID_418_"><path id="XMLID_613_" class="st8" d="M790 0h396L846.9 414.8z"/><path id="XMLID_611_" class="st3" d="M0 0h260l-94.1 413.5z"/><path id="XMLID_489_" class="st2" d="M186.6 465L0 0v426.1z"/><path id="XMLID_422_" class="st4" d="M667.8 0H260l-94.1 413.5 20.7 51.5 353.7 73.6z"/><path id="XMLID_494_" class="st7" d="M667.8 0H790l56.9 414.8 16 116.1L683 568.4l-142.7-29.8z"/><path id="XMLID_421_" class="st15" d="M1366 379.4V0h-180L846.9 414.8l16 116.1L1366 426.1v-46.7z"/></g><text id="XMLID_496_" transform="translate(424.984 302.296)" class="st0"><tspan x="0" y="0" class="st18 st19 st20">Let’s work </tspan><tspan x="295.2" y="0" class="st21 st22 st20">together</tspan></text><g id="port1" class="st0"><path id="XMLID_430_" class="st23" d="M-1400.5-1068.3h387v387h-387z"/><path id="XMLID_431_" class="st24" d="M-1400.5-648.3h387v387h-387z"/><path id="XMLID_432_" class="st25" d="M-1400.5-225.2h387v387h-387z"/><path id="XMLID_433_" class="st11" d="M-875.6-225.2h387v387h-387z"/><path id="XMLID_434_" class="st26" d="M-875.6-648.3h387v387h-387z"/><path id="XMLID_435_" class="st10" d="M-875.6-1068.3h387v387h-387z"/></g><g id="port"><path id="XMLID_470_" class="st27" d="M503.1-841.3h359.7v336.5H503.1z"/><path id="XMLID_471_" class="st27" d="M80.1-841.3h359.7v336.5H80.1z"/><path id="XMLID_472_" class="st27" d="M80.1-453.3h359.7v336.5H80.1z"/><path id="XMLID_473_" class="st27" d="M503.1-453.3h359.7v336.5H503.1z"/><path id="XMLID_474_" class="st27" d="M927.1-453.3h359.7v336.5H927.1z"/><path id="XMLID_475_" class="st27" d="M927.1-841.3h359.7v336.5H927.1z"/><g id="XMLID_476_"><text id="XMLID_491_" transform="translate(104.12 -526.248)" class="st2" font-family="SegoeUI-Semibold" font-size="28">WEBSITE</text></g><g id="XMLID_477_"><text id="XMLID_492_" transform="translate(526.12 -526.248)" class="st2" font-family="SegoeUI-Semibold" font-size="28">WEBSITE</text></g><g id="XMLID_478_"><text id="XMLID_493_" transform="translate(104.12 -138.248)" class="st2" font-family="SegoeUI-Semibold" font-size="28">WEBSITE</text></g><g id="XMLID_479_"><text id="XMLID_495_" transform="translate(526.12 -138.248)" class="st2" font-family="SegoeUI-Semibold" font-size="28">WEBSITE</text></g></g><text id="XMLID_487_" transform="translate(415.984 -970.253)" class="st2 st19 st20">Some work I´ve done</text><path id="XMLID_441_" class="st3" d="M.7-1943.9h1366v855.2H.7z"/><g id="mim1" class="st0"><text id="XMLID_502_" transform="translate(466.81 -1609.453)" class="st1"><tspan x="0" y="0" class="st17" font-family="SegoeUI" font-size="28">Type Anything lets you customize the most </tspan><tspan x="-15.7" y="33.6" class="st17" font-family="SegoeUI" font-size="28">necessary font settings for your next project. </tspan><tspan x="-12" y="67.2" class="st17" font-family="SegoeUI" font-size="28">From font families and letter spacing to font </tspan><tspan x="-9.8" y="100.8" class="st17" font-family="SegoeUI" font-size="28">weights. Our goal was to create a great user </tspan><tspan x="-57.1" y="134.4" class="st17" font-family="SegoeUI" font-size="28">experience, whilst working on the perfect match.</tspan><tspan x="79.9" y="168" class="st17" font-family="SegoeUI" font-size="28">Here&amp;apos;s the story about Type Anything</tspan><tspan x="3.3" y="201.6" class="st17" font-family="SegoeUI" font-size="28">We created Type Anything in the need of a </tspan><tspan x="-33.3" y="235.2" class="st17" font-family="SegoeUI" font-size="28">simple tool to create great font combinations. </tspan><tspan x="182.5" y="268.8" class="st17" font-family="SegoeUI" font-size="28">To put focus on typography.</tspan></text><text id="XMLID_503_" transform="translate(-192.026 -1609.454)" class="st1"><tspan x="0" y="0" class="st17 st19" font-size="28">Here&amp;apos;s the story about Type Anything</tspan><tspan x="0" y="67.2" class="st17" font-family="SegoeUI" font-size="28">We created Type Anything in the need of a </tspan><tspan x="0" y="100.8" class="st17" font-family="SegoeUI" font-size="28">simple tool to create great font combinations. </tspan><tspan x="0" y="134.4" class="st17" font-family="SegoeUI" font-size="28">To put focus on typography.</tspan></text><text id="XMLID_504_" transform="translate(279.58 -1755.765)" class="st18 st22" font-size="54">Who am I?</text></g><g id="mim2"><text id="XMLID_510_" transform="translate(547.612 -1670.258)" class="st17 st22 st20">who am i?</text><path id="XMLID_511_" fill="none" d="M229-1570.1h887.8v385.4H229z"/><text id="XMLID_512_" transform="translate(240.227 -1546.32)"><tspan x="0" y="0" class="st17" font-family="SegoeUI" font-size="28">Here&amp;apos;s the story about Type AnythingWe created Type Anything in the </tspan><tspan x="-7.4" y="33.6" class="st17" font-family="SegoeUI" font-size="28">need of a simple tool to create great font combinations to put focus on </tspan><tspan x="20.8" y="67.2" class="st17" font-family="SegoeUI" font-size="28">typography. Here&amp;apos;s the story about Type AnythingWe created Type </tspan><tspan x="-7.9" y="100.8" class="st17" font-family="SegoeUI" font-size="28">Anything in the need of a simple tool to create great font combinations </tspan><tspan x="260.3" y="134.4" class="st17" font-family="SegoeUI" font-size="28">to put focus on typography. </tspan><tspan x="0" y="201.6" class="st17" font-family="SegoeUI" font-size="28">Here&amp;apos;s the story about Type AnythingWe created Type Anything in the </tspan><tspan x="-7.4" y="235.2" class="st17" font-family="SegoeUI" font-size="28">need of a simple tool to create great font combinations to put focus on </tspan><tspan x="358.6" y="268.8" class="st17" font-family="SegoeUI" font-size="28">typography.</tspan></text></g><path id="XMLID_485_" class="st17" d="M0-1930.2l683 142.3 683-142.3v-46.7H0z"/><path id="XMLID_445_" class="st17" d="M.7-2576.8h1366v646.6H.7z"/><text id="XMLID_456_" transform="translate(500.192 -2006.227)" class="st2" font-family="SegoeUI" font-size="41">illustrator + designer</text><g id="menu" class="st0"><g id="XMLID_448_" class="st1"><text id="XMLID_497_" transform="translate(95.08 -2560.875)" class="st2" font-family="SegoeUI-Semilight" font-size="22">ABOUT</text></g><g id="XMLID_449_" class="st1"><text id="XMLID_505_" transform="translate(360.655 -2560.875)" class="st2" font-family="SegoeUI-Semilight" font-size="22">PORTFOLIO</text></g><g id="XMLID_450_" class="st1"><text id="XMLID_506_" transform="translate(629.162 -2560.875)" class="st2" font-family="SegoeUI-Semilight" font-size="22">CONTACT</text></g></g><g id="menu1"><path id="XMLID_451_" class="st2" d="M1202.5-2513.5h72v4.1h-72z"/><path id="XMLID_452_" class="st2" d="M1202.5-2498.4h72v4.1h-72z"/><path id="XMLID_453_" class="st2" d="M1202.5-2482.9h72v4.1h-72z"/></g></g></svg>