<svg id="Layer_1" xmlns="http://www.w3.org/2000/svg" viewBox="0 0 897.6 172"><style>.st0{display:none;opacity:.27}.st1{display:inline}.st2{display:none;opacity:.24}.st3{opacity:.34}.st3,.st4,.st5{display:none}.st4{opacity:.36}.st5{opacity:.25}.st6{fill:#7cced2}.st7{fill:#f2cc81}.st8{fill:#938d8f}.st9{fill:#ee6d54}.st10{fill:#547f69}.st11{fill:#b7926e}.st12{fill:#333033}.st13{fill:#ef928b}.st14{display:none;fill:none}.st14,.st15{stroke:#fff;stroke-miterlimit:10}.st15,.st16{fill:none}</style><g id="XMLID_24_" class="st0"><path id="XMLID_248_" class="st1" d="M722.7-.8h185.7V61H722.7z"/><path id="XMLID_249_" class="st1" d="M722.7 109.3h185.7v61.8H722.7z"/><path id="XMLID_247_" class="st1" d="M908.4 109.3l-57 42.7-128.7-91.1L771.9 13z"/></g><g id="XMLID_23_" class="st2"><path id="XMLID_170_" class="st1" d="M504.7-.8h61.8v171.9h-61.8z"/><path id="XMLID_169_" class="st1" d="M509.7-.8h171.9V61H509.7z"/><path id="XMLID_168_" class="st1" d="M509.7 107.4h171.9V152H509.7z"/><path id="XMLID_167_" class="st1" d="M628.7-.8h61.8v171.9h-61.8z"/></g><path id="XMLID_166_" class="st3" d="M472.4 60.9V-.8H286.7V171h185.7v-61.7H347.9V60.9z"/><path id="XMLID_4_" class="st4" d="M199-650.8h61.8v171.9H199z"/><path id="XMLID_3_" class="st5" d="M51.2-650.8l30.2 44 30.3-44h62.6V-479h-62.6l1-68-31.3 33-30.2-33.7v68.7h-62.6v-171.8z"/><g id="M"><path id="XMLID_29_" class="st6" d="M-11.4-564.9H4.4v85.9h-15.8z"/><path id="XMLID_32_" class="st7" d="M4.4-564.9V-622l-15.8-28.8v85.9z"/><path id="XMLID_34_" class="st8" d="M4.1-622l15-28.8 16 23.8z"/><path id="XMLID_35_" class="st9" d="M-11.7-650.8L4.1-622l15-28.8z"/><path id="XMLID_36_" class="st10" d="M35.4-627v36.4L19.5-601H4.1v-21z"/><path id="XMLID_37_" class="st11" d="M19.4-601L4.6-543l-.5-58z"/><path id="XMLID_38_" class="st12" d="M4.4-543h14.5v-58z"/><path id="XMLID_26_" class="st13" d="M4.4-543h14.5v64H4.4z"/><path id="XMLID_33_" class="st7" d="M35.4-627v35.7L52-580.6l2.9-37.4z"/><path id="XMLID_42_" class="st6" d="M19.1-650.8h32.1L71-622l-16.1 4-19.5-9z"/><path id="XMLID_43_" class="st9" d="M52-580.6l17.8 11.3 11.6-37.5L71-622l-16.1 4z"/><path id="XMLID_39_" class="st11" d="M81.4-606.8l17.5 32.6-17.5 12.6-11.6-7.7z"/><path id="XMLID_45_" class="st6" d="M95.3-627l50.6 19.1-25.8 18.6z"/><path id="XMLID_44_" class="st13" d="M81.4-606.8L95.3-627l24.8 37.7-21.2 15.1z"/><path id="XMLID_46_" class="st12" d="M145.9-607.9l28.4-42.9h-62.6L95.3-627z"/><path id="XMLID_48_" class="st8" d="M145.9-608.1v74.6h12v-92.6z"/><path id="XMLID_49_" class="st9" d="M174.3-650.8v60.2h-16.4v-35.5z"/><path id="XMLID_50_" class="st6" d="M157.9-533.5l16.4 17.5v37l-28.4-54.5z"/><path id="XMLID_52_" class="st7" d="M145.9-479h28.4l-28.4-54.5z"/><path id="XMLID_51_" class="st10" d="M174.3-590.6h-16.4v57.1l16.4 17.5z"/><path id="XMLID_54_" class="st8" d="M51.2-479v-42.9L35.4-479z"/><path id="XMLID_55_" class="st10" d="M18.9-479h16.5l-16.5-27.8z"/><path id="XMLID_71_" class="st7" d="M18.9-524.8v18L35.4-479l14-38.1 1.8-4.8z"/><path id="XMLID_60_" class="st7" d="M18.9-564.9l21.8-3.4-21.8-15z"/><path id="XMLID_61_" class="st10" d="M37.8-543l2.9-25.3-21.8 3.4z"/><path id="XMLID_59_" class="st6" d="M18.9-524.8l18.9 1.7V-543l-18.9-21.9z"/><path id="XMLID_57_" class="st9" d="M40.7-568.3L37.8-543v19.9l13.4 1.2v-25.8z"/><path id="XMLID_70_" class="st6" d="M69.8-569.3l-50.9-32.6v18.6l21.8 15 10.5 20.6L81.4-514v-47.6z"/><path id="XMLID_65_" class="st12" d="M112.7-547l-31.3-14.6v47.6z"/><path id="XMLID_66_" class="st7" d="M145.9-608.1L112.7-547l-31.3-14.6z"/><path id="XMLID_62_" class="st6" d="M112.7-547h17.7v68h-18.7z"/><path id="XMLID_68_" class="st6" d="M130.2-579.2l15.7 15v-43.9z"/><path id="XMLID_69_" class="st13" d="M130.4-547l-.2 40.2h15.7v-57.4l-15.7-15z"/><path id="XMLID_56_" class="st12" d="M130.2-506.8h15.7v27.8h-15.5z"/><path id="XMLID_63_" class="st10" d="M112.7-547h17.7l-.2-32.2z"/></g><g id="XMLID_10_"><path id="XMLID_11_" class="st6" d="M245.7-605.5h51v55.6h-51z"/><path id="XMLID_27_" class="st11" d="M464-540.3h51v55.6h-51z"/><path id="XMLID_28_" class="st9" d="M389.7-605.5h51v55.6h-51z"/><path id="XMLID_31_" class="st10" d="M245.7-540.3h51v55.6h-51z"/><path id="XMLID_41_" class="st12" d="M311.7-540.3h51v55.6h-51z"/><path id="XMLID_30_" class="st13" d="M316.2-605.5h51v55.6h-51z"/><path id="XMLID_21_" class="st7" d="M464-603.2h51v51h-51z"/><path id="XMLID_25_" class="st8" d="M389.7-540.3h51v55.6h-51z"/></g><path id="XMLID_40_" class="st14" d="M19.4-479v-122l62 40 64-46v128"/><path id="XMLID_310_" class="st15" d="M908.4 33.7h-148L879 140.2l-156.3-1.5"/><path id="XMLID_74_" class="st15" d="M231.1-664.6V-466"/><g id="XMLID_245_"><path id="XMLID_243_" class="st15" d="M535.6 171V30h124v141"/><path id="XMLID_175_" class="st15" d="M535.6 129.7h124"/></g><path id="XMLID_290_" class="st15" d="M472.4 30H319v112.3h153.4"/><g id="XMLID_184_"><g id="XMLID_7_"><path id="XMLID_165_" class="st6" d="M0 85.9h15.8v85.9H0z"/><path id="XMLID_164_" class="st7" d="M15.8 85.9v-57L0 0v85.9z"/><path id="XMLID_163_" class="st8" d="M15.6 28.9L30.6 0l16.3 23.9z"/><path id="XMLID_162_" class="st9" d="M0 0l15.6 28.9L30.6 0z"/><path id="XMLID_161_" class="st10" d="M46.9 23.9v35.6L30.4 49l-14.8.9v-21z"/><path id="XMLID_160_" class="st11" d="M30.4 49l-14.5 58.9-.3-58z"/><path id="XMLID_5_" class="st12" d="M30.4 49l-.1 58.9H15.9z"/><path id="XMLID_158_" class="st13" d="M15.9 107.9h14.5v64H15.9z"/><path id="XMLID_157_" class="st7" d="M46.9 23.9v35.6l16.5 10.7 3-37.3z"/><path id="XMLID_156_" class="st6" d="M30.6 0h32l19.9 28.9-16.1 4-19.5-9z"/><path id="XMLID_153_" class="st6" d="M106.7 23.9L157.3 43l-25.7 18.3z"/><path id="XMLID_152_" class="st13" d="M92.9 44l13.8-20.1 24.9 37.4-21.3 15.4z"/><path id="XMLID_151_" class="st12" d="M157.3 43l28.4-43h-62.5l-16.5 23.9z"/><path id="XMLID_149_" class="st8" d="M157.3 42.7v74.7h12.1V24.7z"/><path id="XMLID_148_" class="st9" d="M185.7 0v60.2h-16.3V24.7z"/><path id="XMLID_147_" class="st6" d="M169.4 117.4l16.3 17.5v37l-28.4-54.5z"/><path id="XMLID_146_" class="st7" d="M157.3 171.9h28.4l-28.4-54.5z"/><path id="XMLID_145_" class="st10" d="M185.7 60.2h-16.3v57.2l16.3 17.5z"/><path id="XMLID_144_" class="st8" d="M62.6 171.9v-43l-15.7 43z"/><path id="XMLID_143_" class="st10" d="M30.3 171.9h16.6L30.3 144z"/><path id="XMLID_142_" class="st7" d="M30.3 126v18l16.6 27.9 13.9-38.2 1.8-4.8z"/><path id="XMLID_141_" class="st7" d="M30.3 86.1l21.8-3.6-21.8-15z"/><path id="XMLID_139_" class="st6" d="M30.3 126l18.9 1.7v-19.8L30.3 86.1z"/><path id="XMLID_6_" class="st9" d="M62.6 103.1v25.8l-13.4-1.2v-19.8l2.9-25.4z"/><path id="XMLID_136_" class="st12" d="M124.2 103.8L92.9 89.2v47.6z"/><path id="XMLID_134_" class="st6" d="M124.2 103.8h17.7v68.1h-17.7z"/><path id="XMLID_133_" class="st6" d="M141.6 71.7l15.7 14.9V42.7z"/><path id="XMLID_132_" class="st13" d="M141.9 103.8V144h15.4V86.6l-15.7-14.9z"/><path id="XMLID_130_" class="st12" d="M141.9 144h15.5v27.8h-15.5z"/><path id="XMLID_129_" class="st10" d="M124.2 103.8h17.7l-.3-32.1z"/><path id="XMLID_155_" class="st9" d="M63.4 70.2l17.8 11.4L92.9 44 82.5 28.9l-16.1 4z"/><path id="XMLID_87_" class="st7" d="M157.3 42.7l-33.1 61.1-31.3-14.6 17.4-12.5z"/><path id="XMLID_88_" class="st10" d="M30.3 86.1l18.9 21.8 2.9-25.4z"/><path id="XMLID_90_" class="st6" d="M71.6 75.4l-9 27.7-10.5-20.6-21.8-15 .1-18.5 16.5 10.5 16.5 10.7z"/><path id="XMLID_92_" class="st6" d="M62.6 103.1l30.3 33.7V89.2z"/><path id="XMLID_86_" class="st11" d="M92.9 44L81.2 81.6l11.7 7.6 17.4-12.5z"/><path id="XMLID_91_" class="st10" d="M81.2 81.6l11.7 7.6-30.3 13.9 9-27.7z"/></g><g id="XMLID_89_"><path id="XMLID_127_" class="st10" d="M251.3 0h19.3v92.9h-19.3z"/><path id="XMLID_126_" class="st9" d="M208.9 0l17.3 21.5h-17.3z"/><path id="XMLID_125_" class="st6" d="M240.9 0h10.3v39.8h-10.3z"/><path id="XMLID_123_" class="st11" d="M240.9 39.8v33.5h10.4V39.8h-10.4"/><path id="XMLID_121_" class="st6" d="M240.9 39.8l-1.6-2"/><path id="XMLID_9_" class="st9" d="M240.9 73.3h10.3v19.6h-10.3z"/><path id="XMLID_119_" class="st13" d="M240.9 92.9l-19.1-19.6 19.1-33.5z"/><path id="XMLID_118_" class="st12" d="M208.9 55.3v30.3l12.9-12.3 19.1-33.5z"/><path id="XMLID_117_" class="st12" d="M240.9 92.9v18.5l29.7-18.5z"/><path id="XMLID_116_" class="st10" d="M221.8 73.3V126h-12.9V85.6z"/><path id="XMLID_115_" class="st7" d="M240.9 111.4l-19.1-11.7V73.3l19.1 19.6z"/><path id="XMLID_114_" class="st6" d="M221.8 126l19.1-14.6-19.1-11.7z"/><path id="XMLID_113_" class="st8" d="M270.6 92.9v36.3l-29.7-9.8v-8z"/><path id="XMLID_112_" class="st11" d="M240.9 111.4L221.8 126l19.1 9.4z"/><path id="XMLID_8_" class="st9" d="M270.6 129.2l-15.1-5-14.6-4.8v16l17.6-4.8 5.7 11.1 6.4 14.1z"/><path id="XMLID_109_" class="st7" d="M240.9 135.4v20.4l23.3-14.1-5.7-11.1z"/><path id="XMLID_108_" class="st10" d="M270.6 155.8h-29.7l23.3-14.1z"/><path id="XMLID_107_" class="st12" d="M221.8 126v30.9h9.6l9.5-21.5z"/><path id="XMLID_106_" class="st13" d="M240.9 155.8h11.5V172h-11.5z"/><path id="XMLID_105_" class="st7" d="M221.8 156.9l-12.9 15 12.9-45.9z"/><path id="XMLID_104_" class="st6" d="M252.4 155.8h18.2V172h-18.2z"/><path id="XMLID_103_" class="st6" d="M231.4 156.9l9.5 15v-36.5z"/><path id="XMLID_102_" class="st13" d="M208.9 126h12.9l-12.9 45.9z"/><path id="XMLID_101_" class="st8" d="M240.9 171.9l-9.5-15h-9.6l-12.9 15z"/><path id="XMLID_2_" class="st7" d="M208.9 21.5v33.8l32-15.5-14.7-18.3z"/><path id="XMLID_122_" class="st8" d="M208.9 0h32v39.8l-14.7-18.3z"/></g><g id="XMLID_131_"><path id="XMLID_98_" class="st12" d="M435.6 160.1h44v11.8h-44z"/><path id="XMLID_100_" class="st10" d="M479.6 143.6v16.5h-26.2z"/><path id="XMLID_99_" class="st7" d="M435.6 160.1v-16.5h44l-26.2 16.5z"/><path id="XMLID_81_" class="st13" d="M370.4 143.6v14.2l38.7 1.1-11 13h37.5v-28.3z"/><path id="XMLID_174_" class="st6" d="M386.7 158.1l-35.6 13.8h47l11-13z"/><path id="XMLID_178_" class="st10" d="M370.4 143.6h-44.7v14.5z"/><path id="XMLID_182_" class="st12" d="M309.4 171.9l-15.5-21.3v21.3z"/><path id="XMLID_183_" class="st6" d="M317.3 171.9l-7.9-25.3 7.9-17.5z"/><path id="XMLID_80_" class="st8" d="M311.2 152.5l-1.8-5.9-15.5-2v6l15.5 21.3h7.9z"/><path id="XMLID_181_" class="st7" d="M317.3 129.1h-23.4v15.5l15.5 2z"/><path id="XMLID_187_" class="st13" d="M317.3 112.8l-12.7 16.3h12.7z"/><path id="XMLID_79_" class="st11" d="M304.7 100.7l-10.8 12.1v16.3h10.7l12.7-16.3z"/><path id="XMLID_188_" class="st10" d="M293.9 112.8l18.2-20.5-9.1-16.9-9.1 3z"/><path id="XMLID_193_" class="st6" d="M325.7 80.6L303 75.4l9.1 16.9-7.4 8.4 21-4.3z"/><path id="XMLID_195_" class="st12" d="M325.7 32.6L303 75.4l22.7 5.2z"/><path id="XMLID_196_" class="st9" d="M304.1 44.9l21.6-12.3L303 75.4z"/><path id="XMLID_194_" class="st11" d="M304.6 30.9l21.1-.5v2.2l-21.6 12.3z"/><path id="XMLID_202_" class="st8" d="M325.7 30.4h33.7V19h-38z"/><path id="XMLID_83_" class="st9" d="M318.4 0l-1.5 7.1 4.5 11.9 28.2-19z"/><path id="XMLID_191_" class="st6" d="M321.4 19h38V0h-9.8z"/><path id="XMLID_77_" class="st7" d="M396.1 0l-13.4 30.4h32.4z"/><path id="XMLID_76_" class="st9" d="M396.1 0l19 30.4 1.6-11.4 1.9-19z"/><path id="XMLID_211_" class="st12" d="M424.8 0l10.8 12.2-18.9 6.8 1.9-19z"/><path id="XMLID_212_" class="st8" d="M429.9 30.4L424.6 16l-7.9 3-1.6 11.4z"/><path id="XMLID_213_" class="st10" d="M435.6 12.2l12.3 6.8 2.7-19h-25.8z"/><path id="XMLID_20_" class="st7" d="M450.6 0l-2.7 19-12.3-6.8-11 3.8 5.3 14.4h49.7V0z"/><path id="XMLID_219_" class="st12" d="M479.6 30.4v31.4h-34.8l7.6-31.4z"/><path id="XMLID_221_" class="st6" d="M429.9 30.4l14.9 31.4 7.6-31.4z"/><path id="XMLID_220_" class="st11" d="M401.4 30.4h28.5v20.5h-19.6z"/><path id="XMLID_223_" class="st13" d="M444.8 61.8h-14.9V30.4z"/><path id="XMLID_224_" class="st7" d="M410.3 50.9h19.6v10.9h-19.6z"/><path id="XMLID_225_" class="st8" d="M407.1 43.5l-52 18.3h55.2V50.9z"/><path id="XMLID_231_" class="st13" d="M325.7 58.2v50.3l29.4-10.6z"/><path id="XMLID_17_" class="st7" d="M325.7 30.4v27.8l29.4 39.7V61.8l-4-31.4z"/><path id="XMLID_13_" class="st12" d="M340.4 103.2l-14.7 5.3v35.1l18.5-21.4 10.9-24.3z"/><path id="XMLID_16_" class="st9" d="M418.4 110.1h-63.3V97.9l-10.9 24.3-18.5 21.4h52v-13l43-11.2z"/><path id="XMLID_236_" class="st8" d="M479.6 110.1h-61.2l2.3 9.3h58.9z"/><path id="XMLID_14_" class="st12" d="M420.7 119.4l-43.1 11.2v13h46.9z"/><path id="XMLID_18_" class="st6" d="M370.4 43.5h-19.3l4 18.3 52-18.3z"/><path id="XMLID_222_" class="st10" d="M401.4 30.4h-50.3v13.1h56z"/><path id="XMLID_12_" class="st7" d="M386.7 158.1l-35.6 13.8h-26l.6-13.8 44.7-14.5v14.2z"/><path id="XMLID_180_" class="st9" d="M317.3 112.8h8.4v59.1h-8.4z"/><path id="XMLID_82_" class="st10" d="M318.4 0h-24.5v29.4l10.7 1.5 21.1-.5-4.3-11.4-4.5-11.9z"/><path id="XMLID_85_" class="st13" d="M293.9 29.4v49l9.1-3 1.1-30.5.5-14z"/><path id="XMLID_84_" class="st7" d="M304.7 100.7l21-4.3v16.4h-8.4z"/><path id="XMLID_93_" class="st6" d="M479.6 119.4v24.2h-55.1l-3.8-24.2z"/><path id="XMLID_128_" class="st12" d="M359.4 0h36.7l-13.4 30.4h-23.3V19z"/></g><g id="XMLID_177_"><path id="XMLID_250_" class="st12" d="M533.7 171.9h-30.8v-26.1z"/><path id="XMLID_246_" class="st6" d="M533.7 130.6h-30.8v15.2l30.8 26.1z"/><path id="XMLID_252_" class="st11" d="M502.9 89.9l15.4 40.7h-15.4z"/><path id="XMLID_251_" class="st9" d="M533.7 130.6v-58l-30.8 17.3 15.4 40.7z"/><path id="XMLID_255_" class="st10" d="M510.6 56l23.1-25.1v41.7z"/><path id="XMLID_256_" class="st12" d="M502.9 19.1L522.2 0h-19.3z"/><path id="XMLID_253_" class="st6" d="M575.6 0v13.9h-48.3L522.2 0z"/><path id="XMLID_258_" class="st11" d="M563.1 30.4l12.5-16.5h-48.3l6.4 17z"/><path id="XMLID_260_" class="st8" d="M606.6 30.4l-31-16.5-12.5 16.5z"/><path id="XMLID_259_" class="st10" d="M575.6 0l63.2 30.4h-32.2l-31-16.5z"/><path id="XMLID_300_" class="st12" d="M630.7 0h-55.1l63.2 30.4 18.9.5z"/><path id="XMLID_266_" class="st9" d="M657.7 0h-27l27 30.9z"/><path id="XMLID_267_" class="st13" d="M688.6 0v30.9l-15.5-.5V15.5z"/><path id="XMLID_269_" class="st10" d="M673.2 80.3l15.4-49.4-15.5-.5z"/><path id="XMLID_268_" class="st10" d="M542.9 171.9v-32.3h21.7v-9h-30.9v41.3z"/><path id="XMLID_270_" class="st12" d="M673.2 80.3v15.3h15.4V30.9z"/><path id="XMLID_271_" class="st6" d="M657.7 80.3v21.3l12.2 12.7 18.7-18.7h-15.4V80.3z"/><path id="XMLID_262_" class="st8" d="M669.9 114.3l-12.2-12.7v44.2l13.6-24.5h17.3V95.6z"/><path id="XMLID_275_" class="st9" d="M673.2 171.9v-27.7l15.4-1.6v29.3z"/><path id="XMLID_94_" class="st10" d="M657.7 145.8v26.1h15.5v-27.7z"/><path id="XMLID_277_" class="st13" d="M542.9 139.6l21.7 13.3v19h-21.7z"/><path id="XMLID_292_" class="st7" d="M564.6 139.6l18.7 13.3h-18.7l-21.7-13.3z"/><path id="XMLID_294_" class="st12" d="M564.6 130.6h26l-26 9z"/><path id="XMLID_293_" class="st8" d="M583.3 152.9l31-22.3h-23.7l-26 9z"/><path id="XMLID_296_" class="st9" d="M626.8 152.9l-12.5-22.3-31 22.3z"/><path id="XMLID_297_" class="st11" d="M641.3 130.6l-14.5 22.3-12.5-22.3z"/><path id="XMLID_298_" class="st6" d="M647.9 130.6l-5.3 41.3h-15.8v-19l14.5-22.3z"/><path id="XMLID_295_" class="st12" d="M657.7 130.6h-9.8l-5.3 41.3h15.1z"/><path id="XMLID_261_" class="st12" d="M553.8 61.8h10.8v46.5h-10.8z"/><path id="XMLID_96_" class="st7" d="M533.7 89.9v40.7h12.6l7.5-22.3V70.2z"/><path id="XMLID_301_" class="st8" d="M551.5 30.4l2.3 31.4v8.4l-20.1 19.7v-59z"/><path id="XMLID_302_" class="st9" d="M577.6 30.4l-23.8 31.4-2.3-31.4z"/><path id="XMLID_274_" class="st6" d="M564.6 61.8l74.2-31.4h-61.2l-23.8 31.4z"/><path id="XMLID_304_" class="st8" d="M611.3 61.8L606.6 44l-42 17.8z"/><path id="XMLID_303_" class="st11" d="M622.4 37.3l4.4 24.5h-15.5L606.6 44z"/><path id="XMLID_305_" class="st13" d="M626.8 61.8l21.7-5.8-9.7-25.6-16.4 6.9z"/><path id="XMLID_110_" class="st10" d="M648.5 56l-21.7 5.8v20.1l30.9-1.6z"/><path id="XMLID_97_" class="st9" d="M626.8 81.9v15.4l23.4 5.9 7.5 27.4V80.3z"/><path id="XMLID_312_" class="st8" d="M553.8 108.3l22.8 22.3h-30.3z"/><path id="XMLID_313_" class="st13" d="M564.6 108.3h31.1l.6 22.3h-19.7l-22.8-22.3z"/><path id="XMLID_314_" class="st7" d="M626.8 97.3v11l1 22.3h29.9l-7.5-27.4z"/><path id="XMLID_95_" class="st10" d="M626.8 108.3h-31.1l.6 22.3h31.5z"/><path id="XMLID_111_" class="st13" d="M688.6 121.3v21.3l-15.4 1.6-15.5 1.6 13.6-24.5z"/><path id="XMLID_120_" class="st7" d="M673.1 15.5v14.9l.1 49.9h-15.5V30.9z"/><path id="XMLID_15_" class="st8" d="M638.8 30.4l18.9.5v49.4L648.5 56z"/><path id="XMLID_124_" class="st13" d="M502.9 50.4v39.5l30.8-17.3L510.6 56z"/><path id="XMLID_135_" class="st7" d="M502.9 19.1v31.3l7.7 5.6 23.1-25.1-6.4-17L522.2 0z"/><path id="XMLID_78_" class="st11" d="M657.7 0h30.9l-15.5 15.5-15.4 15.4z"/></g><g id="XMLID_179_"><path id="XMLID_318_" class="st6" d="M711.9 140l40.5.5 9.2 31.5h-49.7z"/><path id="XMLID_319_" class="st9" d="M816.3 35.2v15.3h51l30.3-15.3z"/><path id="XMLID_323_" class="st11" d="M844.9 61.9l-28.6-11.4h51z"/><path id="XMLID_327_" class="st10" d="M844.9 61.9H829l30.6 21.6-59.2-3.9 15.9-29.1z"/><path id="XMLID_328_" class="st7" d="M837.1 82l3.8 34.3-40.5-36.7z"/><path id="XMLID_329_" class="st6" d="M859.6 83.5l38 26.7-30.8 30.4-25.9-24.3-3.8-34.3z"/><path id="XMLID_326_" class="st9" d="M785.6 140.5h37.2l19 31.5-67.8-16z"/><path id="XMLID_331_" class="st12" d="M761.6 172l12.4-16 67.8 16z"/><path id="XMLID_332_" class="st12" d="M866.8 140.6l30.8 31.4v-61.8z"/><path id="XMLID_335_" class="st13" d="M866.8 140.6V172h30.8z"/><path id="XMLID_334_" class="st13" d="M711.9 110.2H764v11.1h-52.1z"/><path id="XMLID_336_" class="st6" d="M724.9 0l34.7 95.6-47.7-33.7V0z"/><path id="XMLID_338_" class="st6" d="M831.9 0l65.7 35.2V0z"/><path id="XMLID_339_" class="st6" d="M711.9 121.3h52l41.4 19.2z"/><path id="XMLID_337_" class="st11" d="M763.9 110.2h16.3l-11.1-7.8h56.8l26.9 24.8h-47.5v13.3l-41.4-19.2z"/><path id="XMLID_341_" class="st9" d="M780.2 61.5l-20.6 34.1 9.5 6.8h56.8z"/><path id="XMLID_343_" class="st10" d="M744.7 54.6l35.5 6.9-20.6 34.1z"/><path id="XMLID_344_" class="st7" d="M751 35.2l-6.3 19.4 35.5 6.9z"/><path id="XMLID_342_" class="st8" d="M764.4 0L751 35.2l-13.6-.6L724.9 0z"/><path id="XMLID_346_" class="st12" d="M744.7 54.6l6.3-19.4-13.6-.6z"/><path id="XMLID_345_" class="st9" d="M764.4 0h67.5l3.3 22.3L751 35.2z"/><path id="XMLID_348_" class="st10" d="M837.1 35.2l-1.9-12.9L751 35.2z"/><path id="XMLID_349_" class="st7" d="M897.6 35.2h-60.5L831.9 0z"/><path id="XMLID_137_" class="st10" d="M752.4 140.5h33.2L774 156l-12.4 16z"/><path id="XMLID_140_" class="st7" d="M711.9 121.3V140l40.5.5h52.9z"/><path id="XMLID_154_" class="st8" d="M866.8 172v-31.4h-16.3z"/><path id="XMLID_138_" class="st7" d="M841.8 172h25l-16.3-31.4-27.7-.1z"/><path id="XMLID_159_" class="st12" d="M805.3 127.2v13.3h17.5l27.7.1h16.3l-14-13.4z"/><path id="XMLID_172_" class="st16" d="M724.9 0h-13v61.8l47.7 33.8-14.9-41-7.3-20L724.9.2"/><path id="XMLID_173_" class="st13" d="M751 35.2h18.3l35.8 35.9-4.7 8.5-20.2-18.1z"/><path id="XMLID_171_" class="st12" d="M769.3 35.2h47v15.3l-11.2 20.6z"/><path id="XMLID_176_" class="st8" d="M897.6 35.2v26.7h-52.7l22.4-11.4z"/></g></g></svg>