<?xml version="1.0" encoding="utf-8"?>
<!-- Generator: Adobe Illustrator 19.0.0, SVG Export Plug-In . SVG Version: 6.00 Build 0)  -->
<svg version="1.1" id="Layer_1" xmlns="http://www.w3.org/2000/svg" xmlns:xlink="http://www.w3.org/1999/xlink" x="0px" y="0px"
	 viewBox="0 0 1366 202.4" style="enable-background:new 0 0 1366 202.4;" xml:space="preserve">
<style type="text/css">
	.st0{display:none;}
	.st1{display:inline;fill:#333033;}
	.st2{display:inline;fill:#7ACED2;}
	.st3{display:inline;fill:#F1948B;}
	.st4{display:inline;fill:#BB9570;}
	.st5{display:inline;fill:#EE6B54;}
	.st6{display:inline;fill:#537F69;}
	.st7{display:inline;fill:#F4CE81;}
	.st8{display:inline;fill:#978F90;}
	.st9{fill:#F1948B;}
	.st10{fill:#F4CE81;}
	.st11{fill:#7ACED2;}
	.st12{fill:#537F69;}
	.st13{fill:#333033;}
	.st14{fill:#ED6E56;}
	.st15{display:none;fill:none;stroke:#333033;stroke-miterlimit:10;}
	.st16{display:none;fill:#333033;}
	.st17{fill:#FFFFFF;}
	.st18{display:none;fill:#FFFFFF;}
	.st19{display:inline;}
	.st20{fill:none;stroke:#333033;stroke-width:7;stroke-miterlimit:10;}
	.st21{display:none;fill:none;stroke:#333033;stroke-width:7;stroke-miterlimit:10;}
	.st22{display:inline;fill:#81CACD;}
</style>
<g id="XMLID_393_">
	<g id="XMLID_394_" class="st0">
		<polygon id="XMLID_395_" class="st1" points="1469.3,3356.7 2093.3,3356.7 1975.1,3251.6 1629.3,3251.6 		"/>
		<rect id="XMLID_396_" x="1307.3" y="3251.6" class="st2" width="162" height="105.1"/>
		<polygon id="XMLID_397_" class="st3" points="1629.3,3251.6 1469.3,3356.7 1469.3,3251.6 		"/>
		<polygon id="XMLID_398_" class="st4" points="2249.3,3356.7 2249.3,3251.6 2083.3,3356.7 		"/>
		<polygon id="XMLID_399_" class="st5" points="1975.1,3251.6 2093.3,3356.7 2249.3,3251.6 		"/>
		<polygon id="XMLID_400_" class="st2" points="2249.3,3251.6 2478,3251.6 2673.3,3251.6 2673.3,3356.7 2249.3,3356.7 		"/>
		<polygon id="XMLID_401_" class="st1" points="2673.3,3356.7 2537.3,3322 2673.3,3251.6 		"/>
		<polygon id="XMLID_402_" class="st6" points="1469.3,3801.9 2093.3,3801.9 1975.1,3696.8 1629.3,3696.8 		"/>
		<rect id="XMLID_403_" x="1307.3" y="3696.8" class="st7" width="162" height="105.1"/>
		<polygon id="XMLID_404_" class="st2" points="1629.3,3696.8 1469.3,3801.9 1469.3,3696.8 		"/>
		<polygon id="XMLID_405_" class="st3" points="2249.3,3801.9 2249.3,3696.8 2083.3,3801.9 		"/>
		<polygon id="XMLID_406_" class="st4" points="1975.1,3696.8 2093.3,3801.9 2249.3,3696.8 		"/>
		<polygon id="XMLID_407_" class="st5" points="2249.3,3696.8 2478,3696.8 2673.3,3696.8 2673.3,3801.9 2249.3,3801.9 		"/>
		<polygon id="XMLID_408_" class="st8" points="2673.3,3801.9 2537.3,3767.2 2673.3,3696.8 		"/>
	</g>
	<g id="XMLID_409_" class="st0">
		<polygon id="XMLID_410_" class="st7" points="1469.3,4342.4 2093.3,4342.4 1975.1,4237.3 1629.3,4237.3 		"/>
		<rect id="XMLID_411_" x="1307.3" y="4237.3" class="st1" width="162" height="105.1"/>
		<polygon id="XMLID_412_" class="st5" points="1629.3,4237.3 1469.3,4342.4 1469.3,4237.3 		"/>
		<polygon id="XMLID_413_" class="st6" points="2249.3,4342.4 2249.3,4237.3 2083.3,4342.4 		"/>
		<polygon id="XMLID_414_" class="st2" points="1975.1,4237.3 2093.3,4342.4 2249.3,4237.3 		"/>
		<polygon id="XMLID_415_" class="st3" points="2249.3,4237.3 2478,4237.3 2673.3,4237.3 2673.3,4342.4 2249.3,4342.4 		"/>
		<polygon id="XMLID_416_" class="st7" points="2673.3,4342.4 2537.3,4307.7 2673.3,4237.3 		"/>
	</g>
</g>
<g id="XMLID_417_">
	<polygon id="XMLID_418_" class="st9" points="2150.5,3091.8 2239.1,2678 1831.3,2678 1736.3,3091.8 	"/>
	<polygon id="XMLID_419_" class="st10" points="2419.3,3091.8 2757.3,2678 2347.3,2678 	"/>
	<polygon id="XMLID_420_" class="st11" points="1571.3,2678 1736.3,3091.8 1831.3,2678 	"/>
	<polygon id="XMLID_421_" class="st12" points="2347.3,2678 2419.3,3091.8 2150.5,3091.8 2239.1,2678 	"/>
	<polygon id="XMLID_422_" class="st13" points="1736.3,3091.8 1571.3,3091.8 1571.3,2678 1736.3,3091.8 	"/>
	<polygon id="XMLID_423_" class="st14" points="2757.3,2678 2937.3,2678 2937.3,3091.8 2742,3091.8 2419.3,3091.8 	"/>
</g>
<g id="XMLID_424_" class="st0">
	<polygon id="XMLID_425_" class="st6" points="2673.3,2944.8 2537.3,3220.6 2478,3251.6 2478,2888.6 	"/>
	<polygon id="XMLID_426_" class="st7" points="1469.3,3162.8 1307.3,3162.8 1307.3,2934.8 1469.3,3102.8 	"/>
	<polygon id="XMLID_427_" class="st5" points="1469.3,3102.8 1307.3,2934.8 1469.3,2926.8 	"/>
</g>
<g id="XMLID_428_">

		<text id="XMLID_768_" transform="matrix(1 0 0 1 2035.8953 1401.1263)" class="st13" style="font-family:'SegoeUI-Bold'; font-size:46px;">Some work I’ve done</text>
</g>
<g id="port1" class="st0">
	<rect id="XMLID_430_" x="1506.8" y="1459.1" class="st2" width="387" height="387"/>
	<rect id="XMLID_431_" x="1506.8" y="1879.2" class="st4" width="387" height="387"/>
	<rect id="XMLID_432_" x="1506.8" y="2302.2" class="st6" width="387" height="387"/>
	<rect id="XMLID_433_" x="2031.8" y="2302.2" class="st5" width="387" height="387"/>
	<rect id="XMLID_434_" x="2031.8" y="1879.2" class="st3" width="387" height="387"/>
	<rect id="XMLID_435_" x="2031.8" y="1459.1" class="st7" width="387" height="387"/>
</g>
<rect id="XMLID_429_" x="1990.3" y="1459.1" class="st15" width="623" height="446.1"/>
<rect id="XMLID_436_" x="1334.3" y="1459.1" class="st15" width="623" height="446.1"/>
<rect id="XMLID_437_" x="1990.3" y="1935.1" class="st15" width="623" height="446.1"/>
<rect id="XMLID_438_" x="1334.3" y="1935.1" class="st15" width="623" height="446.1"/>
<rect id="XMLID_439_" x="1990.3" y="2423.1" class="st15" width="623" height="446.1"/>
<rect id="XMLID_440_" x="1334.3" y="2423.1" class="st15" width="623" height="446.1"/>
<rect id="XMLID_441_" x="1572.1" y="734.1" class="st11" width="1366" height="855.2"/>
<text id="XMLID_442_" transform="matrix(0.7917 0 0 1 1469.7596 923.0927)" class="st0"><tspan x="0" y="0" class="st1" style="font-family:'SegoeUI'; font-size:28.057px;">Eu sou a Micaela Pimenta, mas toda gente me trata por Micas, tenho 22 anos e vivo em Braga.                     </tspan><tspan x="0" y="32.7" class="st1" style="font-family:'SegoeUI'; font-size:28.057px;">Acabei o curso recentemente e as disciplinas que mais me cativaram foram as de design entre outras </tspan><tspan x="0" y="65.3" class="st1" style="font-family:'SegoeUI'; font-size:28.057px;">que envolveram realizar uma curta e executar modelos em 3D.</tspan><tspan x="0" y="98" class="st1" style="font-family:'SegoeUI'; font-size:28.057px;">A área que mais me interessa é o design, pensar na elaboração assim como na exucução de icons, </tspan><tspan x="0" y="130.7" class="st1" style="font-family:'SegoeUI'; font-size:28.057px;">websites e mesmo video motion.O que me inspira é conseguir tranmitir a mensagem visualmente através do design. </tspan><tspan x="0" y="163.3" class="st1" style="font-family:'SegoeUI'; font-size:28.057px;">Os icons são algo que me dedico mais, talvez por serem pequenos como eu. </tspan><tspan x="0" y="196" class="st1" style="font-family:'SegoeUI'; font-size:28.057px;">Os meus hobbies são passear a minha cadela ruby, apreciar ao maximo todos os momentos da vida, </tspan><tspan x="0" y="228.7" class="st1" style="font-family:'SegoeUI'; font-size:28.057px;">passeando,conhecendo lugares novos, ler, fotografia, instagram, biquinis sou viciada, praia, sol, ondas,</tspan><tspan x="0" y="261.3" class="st1" style="font-family:'SegoeUI'; font-size:28.057px;">passar horas no mar, entre muitos outros....</tspan></text>
<text id="XMLID_443_" transform="matrix(1 0 0 1 1875.775 735.9979)" class="st16" style="font-family:'SegoeUI-Bold'; font-size:46px;">Who am I?</text>
<polygon id="XMLID_444_" class="st16" points="2673.3,1438.8 2392.5,1300.7 2254.5,1369.7 2167.5,1318.8 2128.5,1300.7
	2128.5,1399.8 2035.5,1402.8 2035.5,1300.7 1918.5,1300.7 1855.5,1369.7 1648.4,1369.1 1624.4,1300.7 1570.4,1300.7 1528.4,1369.7
	1483.4,1300.7 1429.6,1438.8 1383.3,1511.7 1307.3,1535.8 1307.3,1161.7 2673.3,1161.7 "/>
<rect id="XMLID_445_" x="1571.3" y="101.2" class="st17" width="1366" height="646.6"/>
<rect id="XMLID_446_" x="1472.3" y="186.7" class="st18" width="1005.7" height="363"/>
<g id="menu" class="st0">
	<g id="XMLID_448_" class="st19">

			<text id="XMLID_770_" transform="matrix(1 0 0 1 1666.3989 117.0953)" class="st13" style="font-family:'SegoeUI-Semilight'; font-size:22px;">ABOUT </text>
	</g>
	<g id="XMLID_449_" class="st19">

			<text id="XMLID_773_" transform="matrix(1 0 0 1 1931.9741 117.0953)" class="st13" style="font-family:'SegoeUI-Semilight'; font-size:22px;">PORTFOLIO</text>
	</g>
	<g id="XMLID_450_" class="st19">

			<text id="XMLID_775_" transform="matrix(1 0 0 1 2200.4812 117.0953)" class="st13" style="font-family:'SegoeUI-Semilight'; font-size:22px;">CONTACT</text>
	</g>
</g>
<g id="menu1">
	<rect id="XMLID_451_" x="2773.9" y="164.5" class="st13" width="72" height="4.1"/>
	<rect id="XMLID_452_" x="2773.9" y="179.6" class="st13" width="72" height="4.1"/>
	<rect id="XMLID_453_" x="2773.9" y="195.1" class="st13" width="72" height="4.1"/>
</g>
<text id="XMLID_456_" transform="matrix(1 0 0 1 2071.5105 671.7435)" class="st13" style="font-family:'SegoeUI'; font-size:41px;">illustrator + designer</text>
<g id="XMLID_457_">
	<polygon id="XMLID_458_" class="st9" points="4172.5,2827.3 4261.1,2586.3 3853.3,2586.3 3758.2,2827.3 	"/>
	<polygon id="XMLID_459_" class="st10" points="4441.3,2827.3 4779.3,2586.3 4369.3,2586.3 	"/>
	<polygon id="XMLID_460_" class="st11" points="3593.3,2586.3 3758.2,2827.3 3853.3,2586.3 	"/>
	<polygon id="XMLID_461_" class="st12" points="4369.3,2586.3 4441.3,2827.3 4172.5,2827.3 4261.1,2586.3 	"/>
	<polygon id="XMLID_462_" class="st13" points="3758.2,2827.3 3593.3,2827.3 3593.3,2586.3 3758.2,2827.3 	"/>
	<polygon id="XMLID_463_" class="st14" points="4779.3,2586.3 4959.3,2586.3 4959.3,2827.3 4764,2827.3 4441.3,2827.3 	"/>
</g>
<g id="XMLID_464_">

		<text id="XMLID_776_" transform="matrix(1 0 0 1 4057.8584 1347.1212)" class="st13" style="font-family:'SegoeUI-Bold'; font-size:46px;">Some work I’ve done</text>
</g>
<g id="XMLID_465_">
	<text id="XMLID_778_" transform="matrix(1 0 0 1 3681.282 324.5006)"><tspan x="0" y="0" class="st13" style="font-family:'SegoeUI-Bold'; font-size:24px;">Eu sou a Micaela Pimenta, mas toda gente me trata por Micas, tenho 22 anos e vivo em Braga.                     </tspan><tspan x="0" y="28.8" class="st13" style="font-family:'SegoeUI-Bold'; font-size:24px;">Acabei o curso recentemente e as disciplinas que mais me cativaram foram as de design entre outras </tspan><tspan x="0" y="57.6" class="st13" style="font-family:'SegoeUI-Bold'; font-size:24px;">que envolveram realizar uma curta e executar modelos em 3D.</tspan><tspan x="0" y="86.4" class="st13" style="font-family:'SegoeUI-Bold'; font-size:24px;">A área que mais me interessa é o design, pensar na elaboração assim como na exucução de icons, </tspan><tspan x="0" y="115.2" class="st13" style="font-family:'SegoeUI-Bold'; font-size:24px;">websites e mesmo video motion.O que me inspira é conseguir tranmitir a mensagem </tspan><tspan x="0" y="144" class="st13" style="font-family:'SegoeUI-Bold'; font-size:24px;">visualmente através do design. Os icons são algo que me dedico mais, talvez por serem pequenos como eu. </tspan><tspan x="0" y="172.8" class="st13" style="font-family:'SegoeUI-Bold'; font-size:24px;">Os meus hobbies são passear a minha cadela ruby, apreciar ao maximo todos os momentos da vida, </tspan><tspan x="0" y="201.6" class="st13" style="font-family:'SegoeUI-Bold'; font-size:24px;">passeando,conhecendo lugares novos, ler, fotografia, instagram, biquinis sou viciada, praia, sol, ondas,</tspan><tspan x="0" y="230.4" class="st13" style="font-family:'SegoeUI-Bold'; font-size:24px;">passar horas no mar, entre muitos outros....</tspan></text>
</g>
<text id="XMLID_466_" transform="matrix(1 0 0 1 4197.7651 187.9875)" class="st13" style="font-family:'SegoeUI-Bold'; font-size:46px;">Who am I?</text>
<text id="XMLID_467_" transform="matrix(1 0 0 1 4012.6763 2718.9658)"><tspan x="0" y="0" class="st17" style="font-family:'SegoeUI-Bold'; font-size:58px;">Let’s work </tspan><tspan x="295.2" y="0" class="st17" style="font-family:'SegoeUIBlack'; font-size:58px;">together</tspan></text>
<text id="XMLID_559_" transform="matrix(1 0 0 1 419.395 2515.0066)"><tspan x="0" y="0" class="st17" style="font-family:'SegoeUI-Bold'; font-size:58px;">Let’s work </tspan><tspan x="295.2" y="0" class="st17" style="font-family:'SegoeUIBlack'; font-size:58px;">together</tspan></text>
<rect id="XMLID_468_" x="1571.3" y="3057.3" class="st10" width="1366" height="340.9"/>
<g id="XMLID_469_">
	<rect id="XMLID_470_" x="2074.4" y="1836.7" class="st20" width="359.7" height="336.5"/>
	<rect id="XMLID_471_" x="1651.4" y="1836.7" class="st20" width="359.7" height="336.5"/>
	<rect id="XMLID_472_" x="1651.4" y="2224.7" class="st20" width="359.7" height="336.5"/>
	<rect id="XMLID_473_" x="2074.4" y="2224.7" class="st20" width="359.7" height="336.5"/>
	<rect id="XMLID_474_" x="2498.4" y="2224.7" class="st20" width="359.7" height="336.5"/>
	<rect id="XMLID_475_" x="2498.4" y="1836.7" class="st20" width="359.7" height="336.5"/>
	<g id="XMLID_476_">

			<text id="XMLID_780_" transform="matrix(1 0 0 1 1675.4384 2151.7227)" class="st13" style="font-family:'SegoeUI-Semibold'; font-size:28px;">WEBSITE</text>
	</g>
	<g id="XMLID_477_">

			<text id="XMLID_782_" transform="matrix(1 0 0 1 2097.4382 2151.7222)" class="st13" style="font-family:'SegoeUI-Semibold'; font-size:28px;">WEBSITE</text>
	</g>
	<g id="XMLID_478_">

			<text id="XMLID_783_" transform="matrix(1 0 0 1 1675.4382 2539.7222)" class="st13" style="font-family:'SegoeUI-Semibold'; font-size:28px;">WEBSITE</text>
	</g>
	<g id="XMLID_479_">

			<text id="XMLID_784_" transform="matrix(1 0 0 1 2097.438 2539.7224)" class="st13" style="font-family:'SegoeUI-Semibold'; font-size:28px;">WEBSITE</text>
	</g>
</g>
<polygon id="XMLID_480_" class="st21" points="1990.3,681 1907.1,681 1990.3,753.5 2073.5,681 "/>
<g id="XMLID_481_" class="st0">

		<rect id="XMLID_482_" x="1957.4" y="750.5" transform="matrix(0.6923 -0.7216 0.7216 0.6923 40.1061 1694.6121)" class="st7" width="99.6" height="99.6"/>
	<polygon id="XMLID_483_" class="st5" points="2023.3,708.1 2131.8,675.3 2101.2,784.4 	"/>
	<polygon id="XMLID_484_" class="st22" points="1889.3,673 1984.2,709.4 1905.2,773.5 	"/>
</g>
<polygon id="XMLID_485_" class="st17" points="1571.3,747.8 2254.3,890.1 2937.3,747.8 2937.3,701.1 1571.3,701.1 "/>
<text id="XMLID_487_" transform="matrix(1 0 0 1 1987.3032 1707.7181)" class="st13" style="font-family:'SegoeUI-Bold'; font-size:58px;">Some work I´ve done</text>
<g id="XMLID_489_">
	<polygon id="XMLID_490_" class="st13" points="1722.5,3057.3 1757.9,3142.9 1571.3,3104.1 1571.3,3057.3 	"/>
	<polygon id="XMLID_491_" class="st11" points="1744.2,3057.3 1736.3,3091.8 1722.5,3057.3 	"/>
	<polygon id="XMLID_492_" class="st9" points="2157.9,3057.3 2111.6,3216.6 1757.9,3142.9 1736.3,3091.8 1744.2,3057.3 	"/>
	<polygon id="XMLID_493_" class="st12" points="2413.3,3057.3 2434.2,3208.9 2254.3,3246.3 2111.6,3216.6 2157.9,3057.3 	"/>
	<polygon id="XMLID_494_" class="st10" points="2447.5,3057.3 2419.3,3091.8 2413.3,3057.3 	"/>
	<polygon id="XMLID_495_" class="st14" points="2937.3,3057.3 2937.3,3104.1 2434.2,3208.9 2419.3,3091.8 2447.5,3057.3 	"/>
</g>
<text id="XMLID_496_" transform="matrix(1 0 0 1 1996.3025 2980.2671)"><tspan x="0" y="0" class="st17" style="font-family:'SegoeUI-Bold'; font-size:58px;">Let’s work </tspan><tspan x="295.2" y="0" class="st13" style="font-family:'SegoeUIBlack'; font-size:58px;">together</tspan></text>
<g id="contactos">
	<circle id="XMLID_498_" class="st17" cx="2090.3" cy="3310.2" r="35.9"/>
	<circle id="XMLID_499_" class="st17" cx="2192.7" cy="3310.2" r="35.9"/>
	<circle id="XMLID_500_" class="st17" cx="2302.8" cy="3310.2" r="35.9"/>
	<circle id="XMLID_501_" class="st17" cx="2418.3" cy="3310.2" r="35.9"/>
</g>
<g id="mim1" class="st0">
	<text id="XMLID_502_" transform="matrix(1 0 0 1 2038.1292 1068.5175)" class="st19"><tspan x="0" y="0" class="st17" style="font-family:'SegoeUI'; font-size:28px;">Type Anything lets you customize the most </tspan><tspan x="-15.7" y="33.6" class="st17" style="font-family:'SegoeUI'; font-size:28px;">necessary font settings for your next project. </tspan><tspan x="-12" y="67.2" class="st17" style="font-family:'SegoeUI'; font-size:28px;">From font families and letter spacing to font </tspan><tspan x="-9.8" y="100.8" class="st17" style="font-family:'SegoeUI'; font-size:28px;">weights. Our goal was to create a great user </tspan><tspan x="-57.1" y="134.4" class="st17" style="font-family:'SegoeUI'; font-size:28px;">experience, whilst working on the perfect match.</tspan><tspan x="79.9" y="168" class="st17" style="font-family:'SegoeUI'; font-size:28px;">Here&apos;s the story about Type Anything</tspan><tspan x="3.3" y="201.6" class="st17" style="font-family:'SegoeUI'; font-size:28px;">We created Type Anything in the need of a </tspan><tspan x="-33.3" y="235.2" class="st17" style="font-family:'SegoeUI'; font-size:28px;">simple tool to create great font combinations. </tspan><tspan x="182.5" y="268.8" class="st17" style="font-family:'SegoeUI'; font-size:28px;">To put focus on typography. </tspan></text>
	<text id="XMLID_503_" transform="matrix(1 0 0 1 1379.2924 1068.517)" class="st19"><tspan x="0" y="0" class="st17" style="font-family:'SegoeUI-Bold'; font-size:28px;">Here&apos;s the story about Type Anything</tspan><tspan x="0" y="67.2" class="st17" style="font-family:'SegoeUI'; font-size:28px;">We created Type Anything in the need of a </tspan><tspan x="0" y="100.8" class="st17" style="font-family:'SegoeUI'; font-size:28px;">simple tool to create great font combinations. </tspan><tspan x="0" y="134.4" class="st17" style="font-family:'SegoeUI'; font-size:28px;">To put focus on typography. </tspan></text>

		<text id="XMLID_504_" transform="matrix(1 0 0 1 1850.8988 922.2059)" style="display:inline;fill:#FFFFFF; font-family:'SegoeUIBlack'; font-size:54px;">Who am I?</text>
</g>
<g id="mim2">

		<text id="XMLID_510_" transform="matrix(1 0 0 1 2118.9307 1007.7122)" class="st17" style="font-family:'SegoeUIBlack'; font-size:58px;">who am i?</text>
	<rect id="XMLID_511_" x="1800.4" y="1107.8" style="fill:none;" width="887.8" height="385.4"/>
	<text id="XMLID_512_" transform="matrix(1 0 0 1 1811.5461 1131.6515)"><tspan x="0" y="0" class="st17" style="font-family:'SegoeUI'; font-size:28px;">Here&apos;s the story about Type AnythingWe created Type Anything in the </tspan><tspan x="-7.4" y="33.6" class="st17" style="font-family:'SegoeUI'; font-size:28px;">need of a simple tool to create great font combinations to put focus on </tspan><tspan x="20.8" y="67.2" class="st17" style="font-family:'SegoeUI'; font-size:28px;">typography. Here&apos;s the story about Type AnythingWe created Type </tspan><tspan x="-7.9" y="100.8" class="st17" style="font-family:'SegoeUI'; font-size:28px;">Anything in the need of a simple tool to create great font combinations </tspan><tspan x="260.3" y="134.4" class="st17" style="font-family:'SegoeUI'; font-size:28px;">to put focus on typography. </tspan><tspan x="0" y="201.6" class="st17" style="font-family:'SegoeUI'; font-size:28px;">Here&apos;s the story about Type AnythingWe created Type Anything in the </tspan><tspan x="-7.4" y="235.2" class="st17" style="font-family:'SegoeUI'; font-size:28px;">need of a simple tool to create great font combinations to put focus on </tspan><tspan x="358.6" y="268.8" class="st17" style="font-family:'SegoeUI'; font-size:28px;">typography. </tspan></text>
</g>
<polygon id="XMLID_168_" class="st11" points="0,0 683,142.3 1366,0 1366,202.4 0,202.4 "/>
</svg>
