<?xml version="1.0" encoding="utf-8"?>
<!-- Generator: Adobe Illustrator 19.0.0, SVG Export Plug-In . SVG Version: 6.00 Build 0)  -->
<svg version="1.1" id="Layer_1" xmlns="http://www.w3.org/2000/svg" xmlns:xlink="http://www.w3.org/1999/xlink" x="0px" y="0px"
	 viewBox="0 0 321.1 208.4" style="enable-background:new 0 0 321.1 208.4;" xml:space="preserve">
<style type="text/css">
	.st0{fill:#F4CE81;}
	.st1{fill:#333033;}
	.st2{fill:#F1948B;}
	.st3{fill:#537F69;}
	.st4{fill:#ED6E56;}
	.st5{fill:#7ACED2;}
</style>
<g id="XMLID_418_">
	<polygon id="XMLID_613_" class="st0" points="185.4,0 278.3,0 199.3,172.1 	"/>
	<polygon id="XMLID_489_" class="st1" points="44.3,183.9 0,0 0.5,171.9 0.5,171.9 0.5,174.8 	"/>
	<polygon id="XMLID_422_" class="st2" points="156.7,0 61,0 39.5,171.8 44.3,183.9 127.3,201.4 	"/>
	<polygon id="XMLID_494_" class="st3" points="156.7,0 185.4,0 199.3,172.1 203,199.5 160.8,208.4 127.3,201.4 	"/>
	<polygon id="XMLID_421_" class="st4" points="321.1,163.7 320.5,0 278.3,0 199.3,172.1 203,199.5 321.1,174.8 321.1,163.7 	"/>
	<polygon id="XMLID_611_" class="st5" points="0,0 61,0 39.5,171.8 	"/>
</g>
</svg>
