<?xml version="1.0" encoding="utf-8"?>
<!-- Generator: Adobe Illustrator 19.0.0, SVG Export Plug-In . SVG Version: 6.00 Build 0)  -->
<svg version="1.1" xmlns="http://www.w3.org/2000/svg" xmlns:xlink="http://www.w3.org/1999/xlink" x="0px" y="0px"
	 viewBox="0 0 1366 568.4" style="enable-background:new 0 0 1366 568.4;" xml:space="preserve">
<style type="text/css">
	.st0{display:none;}
	.st1{display:inline;}
	.st2{fill:#333033;}
	.st3{fill:#7ACED2;}
	.st4{fill:#F1948B;}
	.st5{fill:#BB9570;}
	.st6{fill:#EE6B54;}
	.st7{fill:#537F69;}
	.st8{fill:#F4CE81;}
	.st9{fill:#978F90;}
	.st10{display:inline;fill:#F4CE81;}
	.st11{display:inline;fill:#EE6B54;}
	.st12{display:inline;fill:#81CACD;}
	.st13{display:none;fill:none;stroke:#333033;stroke-width:7;stroke-miterlimit:10;}
	.st14{display:none;fill:#333033;}
	.st15{fill:#ED6E56;}
	.st16{display:none;fill:#F4CE81;}
	.st17{fill:#FFFFFF;}
	.st18{display:inline;fill:#FFFFFF;}
	.st19{font-family:'SegoeUI-Bold';}
	.st20{font-size:58px;}
	.st21{display:inline;fill:#333033;}
	.st22{font-family:'SegoeUIBlack';}
	.st23{display:inline;fill:#7ACED2;}
	.st24{display:inline;fill:#BB9570;}
	.st25{display:inline;fill:#537F69;}
	.st26{display:inline;fill:#F1948B;}
	.st27{fill:none;stroke:#333033;stroke-width:7;stroke-miterlimit:10;}
</style>
<g id="Layer_3">
	<g id="XMLID_393_" class="st0">
		<g id="XMLID_394_" class="st1">
			<polygon id="XMLID_395_" class="st2" points="-1535.7,-1024.9 -911.7,-1024.9 -1029.9,-1130 -1375.7,-1130 			"/>
			<rect id="XMLID_396_" x="-1697.7" y="-1130" class="st3" width="162" height="105.1"/>
			<polygon id="XMLID_397_" class="st4" points="-1375.7,-1130 -1535.7,-1024.9 -1535.7,-1130 			"/>
			<polygon id="XMLID_398_" class="st5" points="-755.7,-1024.9 -755.7,-1130 -921.7,-1024.9 			"/>
			<polygon id="XMLID_399_" class="st6" points="-1029.9,-1130 -911.7,-1024.9 -755.7,-1130 			"/>
			<polygon id="XMLID_400_" class="st3" points="-755.7,-1130 -527,-1130 -331.7,-1130 -331.7,-1024.9 -755.7,-1024.9 			"/>
			<polygon id="XMLID_401_" class="st2" points="-331.7,-1024.9 -467.7,-1059.6 -331.7,-1130 			"/>
			<polygon id="XMLID_402_" class="st7" points="-1535.7,-579.8 -911.7,-579.8 -1029.9,-684.8 -1375.7,-684.8 			"/>
			<rect id="XMLID_403_" x="-1697.7" y="-684.8" class="st8" width="162" height="105.1"/>
			<polygon id="XMLID_404_" class="st3" points="-1375.7,-684.8 -1535.7,-579.8 -1535.7,-684.8 			"/>
			<polygon id="XMLID_405_" class="st4" points="-755.7,-579.8 -755.7,-684.8 -921.7,-579.8 			"/>
			<polygon id="XMLID_406_" class="st5" points="-1029.9,-684.8 -911.7,-579.8 -755.7,-684.8 			"/>
			<polygon id="XMLID_407_" class="st6" points="-755.7,-684.8 -527,-684.8 -331.7,-684.8 -331.7,-579.8 -755.7,-579.8 			"/>
			<polygon id="XMLID_408_" class="st9" points="-331.7,-579.8 -467.7,-614.5 -331.7,-684.8 			"/>
		</g>
		<g id="XMLID_409_" class="st1">
			<polygon id="XMLID_410_" class="st8" points="-1535.7,-39.2 -911.7,-39.2 -1029.9,-144.3 -1375.7,-144.3 			"/>
			<rect id="XMLID_411_" x="-1697.7" y="-144.3" class="st2" width="162" height="105.1"/>
			<polygon id="XMLID_412_" class="st6" points="-1375.7,-144.3 -1535.7,-39.2 -1535.7,-144.3 			"/>
			<polygon id="XMLID_413_" class="st7" points="-755.7,-39.2 -755.7,-144.3 -921.7,-39.2 			"/>
			<polygon id="XMLID_414_" class="st3" points="-1029.9,-144.3 -911.7,-39.2 -755.7,-144.3 			"/>
			<polygon id="XMLID_415_" class="st4" points="-755.7,-144.3 -527,-144.3 -331.7,-144.3 -331.7,-39.2 -755.7,-39.2 			"/>
			<polygon id="XMLID_416_" class="st8" points="-331.7,-39.2 -467.7,-73.9 -331.7,-144.3 			"/>
		</g>
	</g>
	<g id="XMLID_481_" class="st0">
		
			<rect id="XMLID_482_" x="630.6" y="-1768" transform="matrix(0.6923 -0.7216 0.7216 0.6923 1449.1858 -37.7184)" class="st10" width="99.6" height="99.6"/>
		<polygon id="XMLID_483_" class="st11" points="696.5,-1810.3 805,-1843.1 774.4,-1734 		"/>
		<polygon id="XMLID_484_" class="st12" points="562.5,-1845.4 657.5,-1809 578.4,-1745 		"/>
	</g>
	<polygon id="XMLID_480_" class="st13" points="419,-1997 335.7,-1997 419,-1924.5 502.2,-1997 	"/>
	<polygon id="XMLID_444_" class="st14" points="1102,-1239.1 821.2,-1377.3 683.2,-1308.2 596.2,-1359.2 557.2,-1377.3 
		557.2,-1278.1 464.2,-1275.1 464.2,-1377.3 347.1,-1377.3 284.1,-1308.2 77.1,-1308.9 53.1,-1377.3 -0.9,-1377.3 -42.9,-1308.2 
		-87.9,-1377.3 -141.7,-1239.1 -188,-1166.3 -264,-1142.1 -264,-1516.3 1102,-1516.3 	"/>
</g>
<g id="Layer_2">
	<g id="XMLID_457_">
		<polygon id="XMLID_458_" class="st4" points="2601.2,149.3 2689.8,-91.6 2282,-91.6 2186.9,149.3 		"/>
		<polygon id="XMLID_459_" class="st8" points="2870,149.3 3208,-91.6 2798,-91.6 		"/>
		<polygon id="XMLID_460_" class="st3" points="2022,-91.6 2186.9,149.3 2282,-91.6 		"/>
		<polygon id="XMLID_461_" class="st7" points="2798,-91.6 2870,149.3 2601.2,149.3 2689.8,-91.6 		"/>
		<polygon id="XMLID_462_" class="st2" points="2186.9,149.3 2022,149.3 2022,-91.6 2186.9,149.3 		"/>
		<polygon id="XMLID_463_" class="st15" points="3208,-91.6 3388,-91.6 3388,149.3 3192.7,149.3 2870,149.3 		"/>
	</g>
	<g id="XMLID_464_">
		<text id="XMLID_488_" transform="matrix(1 0 0 1 2486.5398 -1330.8494)" class="st2 st19" style="font-size:46px;">Some work I’ve done</text>
	</g>
	<g id="XMLID_465_">
		<text id="XMLID_490_" transform="matrix(1 0 0 1 2109.9631 -2353.47)"><tspan x="0" y="0" class="st2 st19" style="font-size:24px;">Eu sou a Micaela Pimenta, mas toda gente me trata por Micas, tenho 22 anos e vivo em Braga.                     </tspan><tspan x="0" y="28.8" class="st2 st19" style="font-size:24px;">Acabei o curso recentemente e as disciplinas que mais me cativaram foram as de design entre outras </tspan><tspan x="0" y="57.6" class="st2 st19" style="font-size:24px;">que envolveram realizar uma curta e executar modelos em 3D.</tspan><tspan x="0" y="86.4" class="st2 st19" style="font-size:24px;">A área que mais me interessa é o design, pensar na elaboração assim como na exucução de icons, </tspan><tspan x="0" y="115.2" class="st2 st19" style="font-size:24px;">websites e mesmo video motion.O que me inspira é conseguir tranmitir a mensagem </tspan><tspan x="0" y="144" class="st2 st19" style="font-size:24px;">visualmente através do design. Os icons são algo que me dedico mais, talvez por serem pequenos como eu. </tspan><tspan x="0" y="172.8" class="st2 st19" style="font-size:24px;">Os meus hobbies são passear a minha cadela ruby, apreciar ao maximo todos os momentos da vida, </tspan><tspan x="0" y="201.6" class="st2 st19" style="font-size:24px;">passeando,conhecendo lugares novos, ler, fotografia, instagram, biquinis sou viciada, praia, sol, ondas,</tspan><tspan x="0" y="230.4" class="st2 st19" style="font-size:24px;">passar horas no mar, entre muitos outros....</tspan></text>
	</g>
	<text id="XMLID_466_" transform="matrix(1 0 0 1 2626.4465 -2489.9832)" class="st2 st19" style="font-size:46px;">Who am I?</text>
	<text id="XMLID_467_" transform="matrix(1 0 0 1 2441.3577 40.9952)"><tspan x="0" y="0" class="st17 st19 st20">Let’s work </tspan><tspan x="295.2" y="0" class="st17 st22 st20">together</tspan></text>
</g>
<g id="Layer_1">
	<rect id="XMLID_468_" x="0" y="379.4" class="st16" width="1366" height="340.9"/>
	<g id="contactos">
		<circle id="XMLID_498_" class="st17" cx="519" cy="632.2" r="35.9"/>
		<circle id="XMLID_499_" class="st17" cx="621.4" cy="632.2" r="35.9"/>
		<circle id="XMLID_500_" class="st17" cx="731.5" cy="632.2" r="35.9"/>
		<circle id="XMLID_501_" class="st17" cx="847" cy="632.2" r="35.9"/>
	</g>
	<g id="XMLID_418_">
		<polygon id="XMLID_613_" class="st8" points="790,0 1186,0 846.9,414.8 		"/>
		<polygon id="XMLID_611_" class="st3" points="0,0 260,0 165.9,413.5 		"/>
		<polygon id="XMLID_489_" class="st2" points="186.6,465 0,0 0,413.9 0,413.9 0,426.1 		"/>
		<polygon id="XMLID_422_" class="st4" points="667.8,0 260,0 165.9,413.5 186.6,465 540.3,538.6 		"/>
		<polygon id="XMLID_494_" class="st7" points="667.8,0 790,0 846.9,414.8 862.9,530.9 683,568.4 540.3,538.6 		"/>
		<polygon id="XMLID_421_" class="st15" points="1366,379.4 1366,0 1186,0 846.9,414.8 862.9,530.9 1366,426.1 1366,379.4 		"/>
	</g>
	<text id="XMLID_496_" transform="matrix(1 0 0 1 424.9837 302.2965)" class="st0"><tspan x="0" y="0" class="st18 st19 st20">Let’s work </tspan><tspan x="295.2" y="0" class="st21 st22 st20">together</tspan></text>
	<g id="port1" class="st0">
		<rect id="XMLID_430_" x="-1400.5" y="-1068.3" class="st23" width="387" height="387"/>
		<rect id="XMLID_431_" x="-1400.5" y="-648.3" class="st24" width="387" height="387"/>
		<rect id="XMLID_432_" x="-1400.5" y="-225.2" class="st25" width="387" height="387"/>
		<rect id="XMLID_433_" x="-875.6" y="-225.2" class="st11" width="387" height="387"/>
		<rect id="XMLID_434_" x="-875.6" y="-648.3" class="st26" width="387" height="387"/>
		<rect id="XMLID_435_" x="-875.6" y="-1068.3" class="st10" width="387" height="387"/>
	</g>
	<g id="port">
		<rect id="XMLID_470_" x="503.1" y="-841.3" class="st27" width="359.7" height="336.5"/>
		<rect id="XMLID_471_" x="80.1" y="-841.3" class="st27" width="359.7" height="336.5"/>
		<rect id="XMLID_472_" x="80.1" y="-453.3" class="st27" width="359.7" height="336.5"/>
		<rect id="XMLID_473_" x="503.1" y="-453.3" class="st27" width="359.7" height="336.5"/>
		<rect id="XMLID_474_" x="927.1" y="-453.3" class="st27" width="359.7" height="336.5"/>
		<rect id="XMLID_475_" x="927.1" y="-841.3" class="st27" width="359.7" height="336.5"/>
		<g id="XMLID_476_">
			
				<text id="XMLID_491_" transform="matrix(1 0 0 1 104.1195 -526.248)" class="st2" style="font-family:'SegoeUI-Semibold'; font-size:28px;">WEBSITE</text>
		</g>
		<g id="XMLID_477_">
			
				<text id="XMLID_492_" transform="matrix(1 0 0 1 526.1195 -526.2484)" class="st2" style="font-family:'SegoeUI-Semibold'; font-size:28px;">WEBSITE</text>
		</g>
		<g id="XMLID_478_">
			
				<text id="XMLID_493_" transform="matrix(1 0 0 1 104.1194 -138.2484)" class="st2" style="font-family:'SegoeUI-Semibold'; font-size:28px;">WEBSITE</text>
		</g>
		<g id="XMLID_479_">
			
				<text id="XMLID_495_" transform="matrix(1 0 0 1 526.1193 -138.2483)" class="st2" style="font-family:'SegoeUI-Semibold'; font-size:28px;">WEBSITE</text>
		</g>
	</g>
	<text id="XMLID_487_" transform="matrix(1 0 0 1 415.9844 -970.2525)" class="st2 st19 st20">Some work I´ve done</text>
	<rect id="XMLID_441_" x="0.7" y="-1943.9" class="st3" width="1366" height="855.2"/>
	<g id="mim1" class="st0">
		<text id="XMLID_502_" transform="matrix(1 0 0 1 466.8104 -1609.4531)" class="st1"><tspan x="0" y="0" class="st17" style="font-family:'SegoeUI'; font-size:28px;">Type Anything lets you customize the most </tspan><tspan x="-15.7" y="33.6" class="st17" style="font-family:'SegoeUI'; font-size:28px;">necessary font settings for your next project. </tspan><tspan x="-12" y="67.2" class="st17" style="font-family:'SegoeUI'; font-size:28px;">From font families and letter spacing to font </tspan><tspan x="-9.8" y="100.8" class="st17" style="font-family:'SegoeUI'; font-size:28px;">weights. Our goal was to create a great user </tspan><tspan x="-57.1" y="134.4" class="st17" style="font-family:'SegoeUI'; font-size:28px;">experience, whilst working on the perfect match.</tspan><tspan x="79.9" y="168" class="st17" style="font-family:'SegoeUI'; font-size:28px;">Here&apos;s the story about Type Anything</tspan><tspan x="3.3" y="201.6" class="st17" style="font-family:'SegoeUI'; font-size:28px;">We created Type Anything in the need of a </tspan><tspan x="-33.3" y="235.2" class="st17" style="font-family:'SegoeUI'; font-size:28px;">simple tool to create great font combinations. </tspan><tspan x="182.5" y="268.8" class="st17" style="font-family:'SegoeUI'; font-size:28px;">To put focus on typography. </tspan></text>
		<text id="XMLID_503_" transform="matrix(1 0 0 1 -192.0264 -1609.4536)" class="st1"><tspan x="0" y="0" class="st17 st19" style="font-size:28px;">Here&apos;s the story about Type Anything</tspan><tspan x="0" y="67.2" class="st17" style="font-family:'SegoeUI'; font-size:28px;">We created Type Anything in the need of a </tspan><tspan x="0" y="100.8" class="st17" style="font-family:'SegoeUI'; font-size:28px;">simple tool to create great font combinations. </tspan><tspan x="0" y="134.4" class="st17" style="font-family:'SegoeUI'; font-size:28px;">To put focus on typography. </tspan></text>
		<text id="XMLID_504_" transform="matrix(1 0 0 1 279.58 -1755.7646)" class="st18 st22" style="font-size:54px;">Who am I?</text>
	</g>
	<g id="mim2">
		<text id="XMLID_510_" transform="matrix(1 0 0 1 547.6118 -1670.2584)" class="st17 st22 st20">who am i?</text>
		<rect id="XMLID_511_" x="229" y="-1570.1" style="fill:none;" width="887.8" height="385.4"/>
		<text id="XMLID_512_" transform="matrix(1 0 0 1 240.2274 -1546.3191)"><tspan x="0" y="0" class="st17" style="font-family:'SegoeUI'; font-size:28px;">Here&apos;s the story about Type AnythingWe created Type Anything in the </tspan><tspan x="-7.4" y="33.6" class="st17" style="font-family:'SegoeUI'; font-size:28px;">need of a simple tool to create great font combinations to put focus on </tspan><tspan x="20.8" y="67.2" class="st17" style="font-family:'SegoeUI'; font-size:28px;">typography. Here&apos;s the story about Type AnythingWe created Type </tspan><tspan x="-7.9" y="100.8" class="st17" style="font-family:'SegoeUI'; font-size:28px;">Anything in the need of a simple tool to create great font combinations </tspan><tspan x="260.3" y="134.4" class="st17" style="font-family:'SegoeUI'; font-size:28px;">to put focus on typography. </tspan><tspan x="0" y="201.6" class="st17" style="font-family:'SegoeUI'; font-size:28px;">Here&apos;s the story about Type AnythingWe created Type Anything in the </tspan><tspan x="-7.4" y="235.2" class="st17" style="font-family:'SegoeUI'; font-size:28px;">need of a simple tool to create great font combinations to put focus on </tspan><tspan x="358.6" y="268.8" class="st17" style="font-family:'SegoeUI'; font-size:28px;">typography. </tspan></text>
	</g>
	<polygon id="XMLID_485_" class="st17" points="0,-1930.2 683,-1787.9 1366,-1930.2 1366,-1976.9 0,-1976.9 	"/>
	<rect id="XMLID_445_" x="0.7" y="-2576.8" class="st17" width="1366" height="646.6"/>
	
		<text id="XMLID_456_" transform="matrix(1 0 0 1 500.1916 -2006.2271)" class="st2" style="font-family:'SegoeUI'; font-size:41px;">illustrator + designer</text>
	<g id="menu" class="st0">
		<g id="XMLID_448_" class="st1">
			
				<text id="XMLID_497_" transform="matrix(1 0 0 1 95.0801 -2560.8752)" class="st2" style="font-family:'SegoeUI-Semilight'; font-size:22px;">ABOUT </text>
		</g>
		<g id="XMLID_449_" class="st1">
			
				<text id="XMLID_505_" transform="matrix(1 0 0 1 360.6553 -2560.8752)" class="st2" style="font-family:'SegoeUI-Semilight'; font-size:22px;">PORTFOLIO</text>
		</g>
		<g id="XMLID_450_" class="st1">
			
				<text id="XMLID_506_" transform="matrix(1 0 0 1 629.1624 -2560.8752)" class="st2" style="font-family:'SegoeUI-Semilight'; font-size:22px;">CONTACT</text>
		</g>
	</g>
	<g id="menu1">
		<rect id="XMLID_451_" x="1202.5" y="-2513.5" class="st2" width="72" height="4.1"/>
		<rect id="XMLID_452_" x="1202.5" y="-2498.4" class="st2" width="72" height="4.1"/>
		<rect id="XMLID_453_" x="1202.5" y="-2482.9" class="st2" width="72" height="4.1"/>
	</g>
</g>
</svg>
