<?xml version="1.0" encoding="utf-8"?>
<!-- Generator: Adobe Illustrator 19.0.0, SVG Export Plug-In . SVG Version: 6.00 Build 0)  -->
<svg version="1.1" id="Layer_1" xmlns="http://www.w3.org/2000/svg" xmlns:xlink="http://www.w3.org/1999/xlink" x="0px" y="0px"
	 viewBox="0 0 770.7 531.1" style="enable-background:new 0 0 770.7 531.1;" xml:space="preserve">
<style type="text/css">
	.st0{fill:#F4CE81;}
	.st1{display:none;fill:#333033;}
	.st2{fill:#333033;}
	.st3{fill:#F1948B;}
	.st4{fill:#537F69;}
	.st5{fill:#ED6E56;}
	.st6{fill:#7ACED2;}
</style>
<g id="XMLID_418_">
	<polygon id="XMLID_613_" class="st0" points="446.1,0 669.2,0 478.5,444.4 	"/>
	<polygon id="XMLID_489_" class="st1" points="106.4,472.7 0,-61.3 0,450.5 	"/>
	<polygon id="XMLID_1_" class="st2" points="0.9,0 94.8,443.7 106.4,472.7 0,450.5 	"/>
	<polygon id="XMLID_422_" class="st3" points="377.2,0 147.4,0 94.8,443.7 106.4,472.7 305.7,514.3 	"/>
	<polygon id="XMLID_494_" class="st4" points="377.2,0 446.1,0 478.5,444.4 487.5,510 386.2,531.1 305.7,514.3 	"/>
	<polygon id="XMLID_421_" class="st5" points="770.7,0 669.2,0 478.5,444.4 487.5,510 769.8,451.1 	"/>
	<polygon id="XMLID_611_" class="st6" points="0.9,0 147.4,0 94.8,443.7 	"/>
</g>
</svg>
