<?xml version="1.0" encoding="utf-8"?>
<!-- Generator: Adobe Illustrator 19.0.0, SVG Export Plug-In . SVG Version: 6.00 Build 0)  -->
<svg version="1.1" id="Layer_1" xmlns="http://www.w3.org/2000/svg" xmlns:xlink="http://www.w3.org/1999/xlink" x="0px" y="0px"
	 viewBox="0 0 413.5 367.4" style="enable-background:new 0 0 413.5 367.4;" xml:space="preserve">
<style type="text/css">
	.st0{fill:#F4CE81;}
	.st1{display:none;fill:#333033;}
	.st2{fill:#333033;}
	.st3{fill:#F1948B;}
	.st4{fill:#537F69;}
	.st5{fill:#ED6E56;}
	.st6{fill:#7ACED2;}
</style>
<g id="XMLID_418_">
	<polygon id="XMLID_613_" class="st0" points="239.1,0 359,0 257.1,320.5 	"/>
	<polygon id="XMLID_489_" class="st1" points="57.2,335.8 0,46.6 0,323.8 	"/>
	<polygon id="XMLID_1_" class="st2" points="0,0 50.9,320.1 57.2,335.8 0,323.8 	"/>
	<polygon id="XMLID_422_" class="st3" points="202.2,0 78.7,0 50.9,320.1 57.2,335.8 164.2,358.4 	"/>
	<polygon id="XMLID_494_" class="st4" points="202.2,0 239.1,0 257.1,320.5 261.9,356 207.4,367.4 164.2,358.4 	"/>
	<polygon id="XMLID_421_" class="st5" points="413.5,0 359,0 257.1,320.5 261.9,356 413.5,324.1 	"/>
	<polygon id="XMLID_611_" class="st6" points="0,0 78.7,0 50.9,320.1 	"/>
</g>
</svg>
