<?xml version="1.0" encoding="utf-8"?>
<!-- Generator: Adobe Illustrator 19.0.0, SVG Export Plug-In . SVG Version: 6.00 Build 0)  -->
<svg version="1.1" id="Layer_1" xmlns="http://www.w3.org/2000/svg" xmlns:xlink="http://www.w3.org/1999/xlink" x="0px" y="0px"
	 viewBox="0 0 1049 612" style="enable-background:new 0 0 1049 612;" xml:space="preserve">
<style type="text/css">
	.st0{display:none;opacity:0.27;}
	.st1{display:inline;}
	.st2{display:none;opacity:0.24;}
	.st3{display:none;opacity:0.34;}
	.st4{display:none;opacity:0.36;}
	.st5{display:none;opacity:0.25;}
	.st6{fill:#7CCED2;}
	.st7{fill:#F2CC81;}
	.st8{fill:#938D8F;}
	.st9{fill:#EE6D54;}
	.st10{fill:#547F69;}
	.st11{fill:#B7926E;}
	.st12{fill:#333033;}
	.st13{fill:#EF928B;}
	.st14{display:none;fill:none;stroke:#FFFFFF;stroke-miterlimit:10;}
	.st15{fill:none;stroke:#FFFFFF;stroke-miterlimit:10;}
</style>
<g id="XMLID_24_" class="st0">
	<rect id="XMLID_248_" x="789.3" y="171.1" class="st1" width="185.7" height="61.8"/>
	<rect id="XMLID_249_" x="789.3" y="281.3" class="st1" width="185.7" height="61.8"/>
	<polygon id="XMLID_247_" class="st1" points="975,281.3 918,324 789.3,232.9 838.5,185 	"/>
</g>
<g id="XMLID_23_" class="st2">
	<rect id="XMLID_170_" x="571.3" y="171.1" class="st1" width="61.8" height="171.9"/>
	<rect id="XMLID_169_" x="576.3" y="171.1" class="st1" width="171.9" height="61.8"/>
	<rect id="XMLID_168_" x="576.3" y="279.4" class="st1" width="171.9" height="44.6"/>
	<rect id="XMLID_167_" x="695.2" y="171.1" class="st1" width="61.8" height="171.9"/>
</g>
<polygon id="XMLID_166_" class="st3" points="539,232.9 539,171.1 414.4,171.1 368.7,171.1 353.3,171.1 353.3,343 368.7,343
	414.4,343 539,343 539,281.3 414.4,281.3 414.4,232.9 "/>
<rect id="XMLID_4_" x="265.6" y="-478.9" class="st4" width="61.8" height="171.9"/>
<polygon id="XMLID_3_" class="st5" points="117.7,-478.9 148,-434.9 178.3,-478.9 240.9,-478.9 240.9,-307 178.3,-307 179.3,-375.1
	148,-342.1 117.7,-375.7 117.7,-307 55.2,-307 55.2,-478.9 "/>
<g id="M">
	<rect id="XMLID_29_" x="55.2" y="-392.9" class="st6" width="15.8" height="85.9"/>
	<polygon id="XMLID_32_" class="st7" points="71,-392.9 71,-450 55.1,-478.9 55.1,-392.9 	"/>
	<polygon id="XMLID_34_" class="st8" points="70.7,-450 85.7,-478.9 101.7,-455 	"/>
	<polygon id="XMLID_35_" class="st9" points="54.9,-478.9 70.7,-450 85.7,-478.9 	"/>
	<polygon id="XMLID_36_" class="st10" points="102,-455 102,-418.7 86.1,-429 70.7,-429 70.7,-450 	"/>
	<polygon id="XMLID_37_" class="st11" points="86,-429 71.1,-371 70.7,-429 	"/>
	<polygon id="XMLID_38_" class="st12" points="71,-371 85.5,-371 85.5,-429 	"/>
	<rect id="XMLID_26_" x="71" y="-371" class="st13" width="14.5" height="64"/>
	<polygon id="XMLID_33_" class="st7" points="102,-455 102,-419.4 118.6,-408.6 121.5,-446 	"/>
	<polygon id="XMLID_42_" class="st6" points="85.7,-478.9 117.7,-478.9 137.6,-450 121.5,-446 102,-455 	"/>
	<polygon id="XMLID_43_" class="st9" points="118.6,-408.6 136.3,-397.3 148,-434.9 137.6,-450 121.5,-446 	"/>
	<polygon id="XMLID_39_" class="st11" points="148,-434.9 165.4,-402.2 148,-389.6 136.3,-397.3 	"/>
	<polygon id="XMLID_45_" class="st6" points="161.9,-455 212.5,-435.9 186.7,-417.3 	"/>
	<polygon id="XMLID_44_" class="st13" points="148,-434.9 161.9,-455 186.7,-417.3 165.4,-402.2 	"/>
	<polygon id="XMLID_46_" class="st12" points="212.5,-435.9 240.9,-478.9 178.3,-478.9 161.9,-455 	"/>
	<path id="XMLID_47_" d="M212.5-435.9"/>
	<polygon id="XMLID_48_" class="st8" points="212.5,-436.2 212.5,-361.5 224.5,-361.5 224.5,-454.1 	"/>
	<polygon id="XMLID_49_" class="st9" points="240.9,-478.9 240.9,-418.7 224.5,-418.7 224.5,-454.1 	"/>
	<polygon id="XMLID_50_" class="st6" points="224.5,-361.5 240.9,-344 240.9,-307 212.5,-361.5 	"/>
	<polygon id="XMLID_52_" class="st7" points="212.5,-307 240.9,-307 212.5,-361.5 	"/>
	<polygon id="XMLID_51_" class="st10" points="240.9,-418.7 224.5,-418.7 224.5,-361.5 240.9,-344 	"/>
	<polygon id="XMLID_54_" class="st8" points="117.7,-307 117.7,-350 102,-307 	"/>
	<polygon id="XMLID_55_" class="st10" points="85.5,-307 102,-307 85.5,-334.8 	"/>
	<polygon id="XMLID_71_" class="st7" points="85.5,-352.9 85.5,-345.9 85.5,-334.8 102,-307 116,-345.1 117.7,-350 	"/>
	<polygon id="XMLID_60_" class="st7" points="85.5,-392.9 107.3,-396.3 85.5,-411.3 	"/>
	<polygon id="XMLID_61_" class="st10" points="104.3,-371 107.3,-396.3 85.5,-392.9 	"/>
	<polygon id="XMLID_59_" class="st6" points="85.5,-352.9 104.3,-351.2 104.3,-371 85.5,-392.9 	"/>
	<polygon id="XMLID_57_" class="st9" points="107.3,-396.3 104.3,-371 104.3,-351.2 117.7,-350 117.7,-371 117.7,-375.7
		117.7,-375.7 	"/>
	<polygon id="XMLID_70_" class="st6" points="136.3,-397.3 85.5,-429.9 85.5,-411.3 107.3,-396.3 117.7,-375.7 148,-342.1
		148,-389.6 	"/>
	<polygon id="XMLID_65_" class="st12" points="179.3,-375.1 148,-389.6 148,-342.1 	"/>
	<polygon id="XMLID_66_" class="st7" points="212.5,-436.2 179.3,-375.1 148,-389.6 	"/>
	<polygon id="XMLID_62_" class="st6" points="179.3,-375.1 197,-375.1 197,-307 178.3,-307 	"/>
	<polygon id="XMLID_68_" class="st6" points="196.7,-407.2 212.5,-392.3 212.5,-436.2 	"/>
	<polygon id="XMLID_69_" class="st13" points="197,-375.1 196.7,-334.8 212.5,-334.8 212.5,-392.3 196.7,-407.2 	"/>
	<path id="XMLID_67_" class="st8" d="M212.5-307"/>
	<polygon id="XMLID_56_" class="st12" points="196.7,-334.8 212.5,-334.8 212.5,-307 197,-307 	"/>
	<polygon id="XMLID_63_" class="st10" points="179.3,-375.1 197,-375.1 196.7,-407.2 	"/>
</g>
<g id="XMLID_10_">
	<rect id="XMLID_11_" x="312.3" y="-433.6" class="st6" width="51" height="55.6"/>
	<rect id="XMLID_27_" x="530.5" y="-368.3" class="st11" width="51" height="55.6"/>
	<rect id="XMLID_28_" x="456.3" y="-433.6" class="st9" width="51" height="55.6"/>
	<rect id="XMLID_31_" x="312.3" y="-368.3" class="st10" width="51" height="55.6"/>
	<rect id="XMLID_41_" x="378.3" y="-368.3" class="st12" width="51" height="55.6"/>
	<rect id="XMLID_30_" x="382.8" y="-433.6" class="st13" width="51" height="55.6"/>
	<rect id="XMLID_21_" x="530.5" y="-431.3" class="st7" width="51" height="51"/>
	<rect id="XMLID_25_" x="456.3" y="-368.3" class="st8" width="51" height="55.6"/>
</g>
<polyline id="XMLID_40_" class="st14" points="86,-307 86,-321 86,-371 86,-429 148,-389 212,-435 212,-307 "/>
<polyline id="XMLID_310_" class="st15" points="975,205.7 827,205.7 945.6,312.1 789.3,310.7 "/>
<line id="XMLID_74_" class="st15" x1="297.7" y1="-492.7" x2="297.7" y2="-294"/>
<g id="XMLID_245_">
	<polyline id="XMLID_243_" class="st15" points="602.1,343 602.1,202 726.1,202 726.1,343 	"/>
	<line id="XMLID_175_" class="st15" x1="602.1" y1="301.7" x2="726.1" y2="301.7"/>
</g>
<polyline id="XMLID_290_" class="st15" points="539,202 385.6,202 385.6,314.3 539,314.3 "/>
<g id="S">
	<polygon id="XMLID_318_" class="st6" points="778.4,311 819,311.6 828.2,343 778.4,343 	"/>
	<polygon id="XMLID_320_" class="st10" points="852.4,312.8 828.2,343.9 819,312.5 	"/>
	<polygon id="XMLID_321_" class="st8" points="964.2,207.1 911.5,233.8 964.2,233.8 	"/>
	<polygon id="XMLID_319_" class="st9" points="882.8,207.1 882.8,222.5 933.9,222.5 964.2,207.1 	"/>
	<polygon id="XMLID_323_" class="st11" points="911.5,233.8 882.8,222.5 933.9,222.5 	"/>
	<polygon id="XMLID_324_" class="st13" points="842.8,214.2 874.5,245.9 867,251.6 817.5,207.1 835.8,207.1 	"/>
	<polygon id="XMLID_322_" class="st12" points="920.2,299.2 871.8,299.9 871.8,313.1 933.4,312.5 	"/>
	<polygon id="XMLID_325_" class="st12" points="874.5,245.9 882.8,222.5 882.8,207.1 835.8,207.1 	"/>
	<polygon id="XMLID_327_" class="st10" points="911.5,233.8 895.6,233.8 926.2,255.4 867,251.6 882.8,222.5 	"/>
	<polygon id="XMLID_328_" class="st7" points="903.7,254 907.1,287.9 866.6,251.6 	"/>
	<polygon id="XMLID_329_" class="st6" points="926.2,255.4 964.2,282.2 933.4,312.5 907.1,287.9 903.7,254 	"/>
	<polygon id="XMLID_326_" class="st9" points="852.4,312.8 889.1,312.1 908.4,343.9 840.6,328 	"/>
	<polygon id="XMLID_331_" class="st12" points="828.2,343.9 840.6,328 908.4,343.9 	"/>
	<polygon id="XMLID_332_" class="st12" points="933.4,312.5 964.2,343.9 964.2,282.2 	"/>
	<polygon id="XMLID_333_" class="st8" points="916.8,312.1 933.4,343.9 933.4,312.5 	"/>
	<polygon id="XMLID_330_" class="st7" points="889.1,312.1 916.8,312.1 933.4,343.9 908.4,343.9 	"/>
	<polygon id="XMLID_335_" class="st13" points="933.4,312.5 933.4,343.9 964.2,343.9 	"/>
	<rect id="XMLID_334_" x="778.4" y="282.2" class="st13" width="52.1" height="11.1"/>
	<polygon id="XMLID_336_" class="st6" points="791.5,172.1 826.2,267.6 778.4,233.8 778.4,172.1 	"/>
	<polygon id="XMLID_338_" class="st6" points="898.5,172.1 964.2,207.1 964.2,172.1 	"/>
	<polygon id="XMLID_339_" class="st6" points="778.4,293.3 830.5,293.3 871.8,313.1 	"/>
	<polygon id="XMLID_340_" class="st7" points="778.4,312 778.4,293.3 871.8,313.1 	"/>
	<polygon id="XMLID_337_" class="st11" points="830.5,282.2 846.8,282.2 835.7,274.3 892.4,274.3 919.2,299.2 871.8,299.9
		871.8,313.1 830.5,293.3 	"/>
	<polygon id="XMLID_341_" class="st9" points="846.8,233.4 826.2,267.6 835.7,274.3 892.4,274.3 	"/>
	<polygon id="XMLID_343_" class="st10" points="811.3,226.5 846.8,233.4 826.2,267.6 	"/>
	<polygon id="XMLID_344_" class="st7" points="817.5,207.1 811.3,226.5 846.8,233.4 	"/>
	<polygon id="XMLID_342_" class="st8" points="831,172.1 817.5,207.1 804,206.6 791.5,172.1 	"/>
	<polygon id="XMLID_346_" class="st12" points="811.3,226.5 817.5,207.1 804,206.6 	"/>
	<polygon id="XMLID_345_" class="st9" points="831,172.1 898.5,172.1 902.8,194.3 817.5,207.1 	"/>
	<polygon id="XMLID_348_" class="st10" points="903.7,207.1 902.8,194.3 817.5,207.1 	"/>
	<polygon id="XMLID_349_" class="st7" points="964.2,207.1 903.7,207.1 898.5,172.1 	"/>
</g>
<g id="A">
	<polygon id="XMLID_250_" class="st12" points="600.3,343.9 569.4,343.9 569.4,317.7 	"/>
	<polygon id="XMLID_246_" class="st6" points="600.3,302.6 569.4,302.6 569.4,317.7 600.3,343.9 	"/>
	<polygon id="XMLID_252_" class="st11" points="569.4,261.9 584.9,302.6 569.4,302.6 	"/>
	<polygon id="XMLID_251_" class="st9" points="600.3,302.6 600.3,244.6 569.4,261.9 584.9,302.6 	"/>
	<polygon id="XMLID_254_" class="st13" points="569.4,222.4 600.3,244.6 569.4,261.9 	"/>
	<polygon id="XMLID_255_" class="st10" points="577.2,227.9 600.3,202.9 600.3,244.6 	"/>
	<polygon id="XMLID_256_" class="st12" points="569.4,191 588.7,172.1 569.4,172 	"/>
	<polygon id="XMLID_257_" class="st7" points="600.3,202.9 588.7,172.1 569.4,191 569.4,222.4 577.2,227.9 	"/>
	<polygon id="XMLID_253_" class="st6" points="642.2,172 642.2,185.9 593.9,185.9 588.7,172.1 	"/>
	<polygon id="XMLID_258_" class="st11" points="629.7,202.4 642.2,185.9 593.9,185.9 600.3,202.9 	"/>
	<polygon id="XMLID_260_" class="st8" points="673.2,202.4 642.2,185.9 629.7,202.4 	"/>
	<polygon id="XMLID_259_" class="st10" points="642.2,172 705.4,202.4 673.2,202.4 642.2,185.9 	"/>
	<polygon id="XMLID_264_" class="st11" points="724.3,172.1 755.2,172 724.3,202.9 	"/>
	<polygon id="XMLID_300_" class="st12" points="697.2,172.1 642.2,172 691.4,195.7 705.4,202.4 724.3,202.9 	"/>
	<polygon id="XMLID_266_" class="st9" points="724.3,172.1 697.2,172.1 724.3,202.9 	"/>
	<polygon id="XMLID_265_" class="st7" points="739.7,187.5 739.7,252.2 724.3,252.2 724.3,202.9 	"/>
	<polygon id="XMLID_267_" class="st13" points="755.2,172 755.2,202.9 739.7,202.4 739.7,187.5 	"/>
	<polygon id="XMLID_269_" class="st10" points="739.7,252.2 755.2,202.9 739.7,202.4 	"/>
	<polygon id="XMLID_268_" class="st10" points="609.5,343.9 609.5,311.6 631.2,311.6 631.2,302.6 600.3,302.6 600.3,343.9 	"/>
	<polygon id="XMLID_270_" class="st12" points="739.7,252.2 739.7,267.6 755.2,267.6 755.2,202.9 	"/>
	<polygon id="XMLID_271_" class="st6" points="724.3,252.2 724.3,273.6 736.5,286.2 755.2,267.6 739.7,267.6 739.7,252.2 	"/>
	<polygon id="XMLID_262_" class="st8" points="736.5,286.2 724.3,273.6 724.3,293.2 724.3,317.7 737.8,293.2 755.2,293.2
		755.2,267.6 	"/>
	<polygon id="XMLID_272_" class="st13" points="755.2,293.2 755.2,314.6 724.3,317.7 737.8,293.2 	"/>
	<polygon id="XMLID_275_" class="st9" points="739.7,343.9 739.7,316.1 755.2,314.6 755.2,343.9 	"/>
	<polygon id="XMLID_91_" class="st10" points="724.3,317.7 724.3,343.9 731.1,343.9 739.7,343.9 739.7,316.1 	"/>
	<polygon id="XMLID_277_" class="st13" points="609.5,311.6 631.2,324.9 631.2,343.9 609.5,343.9 	"/>
	<polygon id="XMLID_292_" class="st7" points="631.2,311.6 649.8,324.9 631.2,324.9 609.5,311.6 	"/>
	<polygon id="XMLID_294_" class="st12" points="631.2,302.6 657.2,302.6 631.2,311.6 	"/>
	<polygon id="XMLID_293_" class="st8" points="649.8,324.9 680.8,302.6 657.2,302.6 631.2,311.6 	"/>
	<polygon id="XMLID_296_" class="st9" points="693.4,324.9 680.8,302.6 649.8,324.9 	"/>
	<polygon id="XMLID_297_" class="st11" points="707.9,302.6 693.4,324.9 680.8,302.6 	"/>
	<polygon id="XMLID_298_" class="st6" points="714.5,302.6 709.2,343.9 693.4,343.9 693.4,324.9 707.9,302.6 	"/>
	<polygon id="XMLID_295_" class="st12" points="724.3,302.6 714.5,302.6 709.2,343.9 724.3,343.9 	"/>
	<rect id="XMLID_261_" x="620.3" y="233.8" class="st12" width="10.8" height="46.5"/>
	<polygon id="XMLID_89_" class="st7" points="600.3,261.9 600.3,302.6 612.8,302.6 620.3,280.3 620.3,242.2 	"/>
	<polygon id="XMLID_301_" class="st8" points="618,202.4 620.3,233.8 620.3,242.2 600.3,261.9 600.3,202.9 	"/>
	<polygon id="XMLID_302_" class="st9" points="644.2,202.4 620.3,233.8 618,202.4 	"/>
	<polygon id="XMLID_274_" class="st6" points="631.2,233.8 705.4,202.4 644.2,202.4 620.3,233.8 	"/>
	<polygon id="XMLID_304_" class="st8" points="677.9,233.8 673.2,216 631.2,233.8 	"/>
	<polygon id="XMLID_303_" class="st11" points="689,209.3 693.4,233.8 677.9,233.8 673.2,216 	"/>
	<polygon id="XMLID_306_" class="st8" points="705.4,202.4 724.3,252.2 724.3,202.9 	"/>
	<polygon id="XMLID_305_" class="st13" points="693.4,233.8 715.1,227.9 705.4,202.4 689,209.3 	"/>
	<polygon id="XMLID_88_" class="st10" points="715.1,227.9 693.4,233.8 693.4,253.9 724.3,252.2 	"/>
	<polygon id="XMLID_87_" class="st9" points="693.4,253.9 693.4,269.2 716.7,275.1 724.3,302.6 724.3,252.2 	"/>
	<polygon id="XMLID_312_" class="st8" points="620.3,280.3 643.2,302.6 612.8,302.6 	"/>
	<polygon id="XMLID_313_" class="st13" points="631.2,280.3 662.3,280.3 662.9,302.6 643.2,302.6 620.3,280.3 	"/>
	<polygon id="XMLID_314_" class="st7" points="693.4,269.2 693.4,280.3 694.3,302.6 724.3,302.6 716.7,275.1 	"/>
	<polygon id="XMLID_90_" class="st10" points="693.4,280.3 662.3,280.3 662.9,302.6 680.8,302.6 694.3,302.6 	"/>
</g>
<g id="C">
	<rect id="XMLID_98_" x="502.2" y="332.1" class="st12" width="44" height="11.8"/>
	<polygon id="XMLID_100_" class="st10" points="546.2,315.5 546.2,332.1 519.9,332.1 	"/>
	<polygon id="XMLID_99_" class="st7" points="502.2,332.1 502.2,315.5 546.2,315.5 519.9,332.1 	"/>
	<polygon id="XMLID_85_" class="st13" points="491.1,315.5 469.7,315.5 436.9,315.6 436.9,329.8 475.7,330.8 464.7,343.8
		502.2,343.8 502.2,315.5 	"/>
	<polygon id="XMLID_174_" class="st6" points="453.3,330 417.7,343.8 464.7,343.8 475.7,330.8 	"/>
	<polygon id="XMLID_178_" class="st10" points="436.9,315.6 392.3,315.6 392.3,330 	"/>
	<polygon id="XMLID_86_" class="st7" points="436.9,329.8 436.9,315.6 392.3,330 391.2,343.8 417.7,343.8 453.3,330 	"/>
	<polygon id="XMLID_180_" class="st9" points="392.3,315.1 392.3,284.8 383.4,284.8 383.4,343.8 391.7,343.8 392.3,330 	"/>
	<polygon id="XMLID_182_" class="st12" points="375.9,343.8 360.5,322.6 360.5,343.8 	"/>
	<polygon id="XMLID_183_" class="st6" points="383.8,343.8 375.9,318.6 383.8,301.1 	"/>
	<polygon id="XMLID_80_" class="st8" points="377.8,324.5 375.9,318.6 360.5,316.6 360.5,322.6 375.9,343.8 383.8,343.8 	"/>
	<polygon id="XMLID_181_" class="st7" points="383.8,301.1 360.5,301.1 360.5,316.6 375.9,318.6 	"/>
	<polygon id="XMLID_187_" class="st13" points="383.8,284.8 371.2,301.1 383.8,301.1 	"/>
	<polygon id="XMLID_77_" class="st11" points="371.2,272.6 360.5,284.8 360.5,301.1 371.2,301.1 383.8,284.8 	"/>
	<g id="XMLID_78_">
		<polygon id="XMLID_79_" class="st7" points="371.3,272.6 383.9,284.8 392.3,284.8 392.3,268.3 		"/>
		<polygon id="XMLID_82_" class="st7" points="383.9,284.8 392.3,284.8 371.2,272.6 		"/>
	</g>
	<polygon id="XMLID_188_" class="st10" points="360.5,284.8 378.7,264.3 369.6,247.3 360.4,250.3 	"/>
	<polygon id="XMLID_193_" class="st6" points="392.3,252.6 369.6,247.3 378.7,264.3 371.3,272.6 392.3,268.4 	"/>
	<polygon id="XMLID_192_" class="st13" points="360.4,250.3 369.6,247.3 371.2,202.8 360.4,201.3 	"/>
	<polygon id="XMLID_195_" class="st12" points="392.3,204.6 369.6,247.3 392.3,252.6 	"/>
	<polygon id="XMLID_196_" class="st9" points="370.7,216.8 392.3,204.6 369.6,247.3 	"/>
	<polygon id="XMLID_194_" class="st11" points="371.2,202.8 392.3,202.3 392.3,204.6 370.7,216.8 	"/>
	<polygon id="XMLID_16_" class="st10" points="383.5,179.1 384.9,172 360.5,172 360.4,201.3 371.2,202.8 378.7,202.8 392.3,202.3
		"/>
	<polygon id="XMLID_202_" class="st8" points="392.3,202.3 425.9,202.3 425.9,191 388,191 	"/>
	<polygon id="XMLID_14_" class="st9" points="384.9,172 383.5,179.1 388,191 416.2,172 	"/>
	<polygon id="XMLID_191_" class="st6" points="388,191 425.9,191 425.9,172 416.2,172 	"/>
	<polygon id="XMLID_12_" class="st12" points="425.9,172 425.9,187.4 425.9,202.3 449.3,202.3 462.7,172 	"/>
	<polygon id="XMLID_13_" class="st7" points="462.7,172 458.5,181.5 449.3,202.3 467.9,202.3 481.2,202.3 	"/>
	<polygon id="XMLID_17_" class="st9" points="481.2,172 462.7,172 472.1,187.4 481.2,202.3 485.2,172 	"/>
	<polygon id="XMLID_211_" class="st12" points="491.4,172 502.2,184.2 482.7,191 485.2,172 	"/>
	<polygon id="XMLID_212_" class="st8" points="496.5,202.3 491.2,188 482.7,191 481.2,202.3 	"/>
	<polygon id="XMLID_213_" class="st10" points="502.2,184.2 514.4,191 517.2,172 491.4,172 	"/>
	<polygon id="XMLID_15_" class="st7" points="517.2,172 514.4,191 502.2,184.2 491.2,188 496.5,202.3 530.9,202.3 546.2,202.3
		546.2,191 546.2,172 	"/>
	<polygon id="XMLID_219_" class="st12" points="546.2,202.3 546.2,233.7 511.3,233.7 519,202.3 	"/>
	<polygon id="XMLID_221_" class="st6" points="496.5,202.3 511.3,233.7 519,202.3 	"/>
	<polygon id="XMLID_220_" class="st11" points="467.9,202.3 496.5,202.3 496.5,222.8 476.8,222.8 	"/>
	<polygon id="XMLID_223_" class="st13" points="511.3,233.7 496.5,233.7 496.5,202.3 	"/>
	<rect id="XMLID_224_" x="476.8" y="222.8" class="st7" width="19.6" height="10.9"/>
	<polygon id="XMLID_225_" class="st8" points="473.7,215.5 421.6,233.7 476.8,233.7 476.8,222.8 	"/>
	<polygon id="XMLID_231_" class="st13" points="392.3,230.2 392.3,280.5 421.6,269.8 	"/>
	<polygon id="XMLID_20_" class="st7" points="392.3,202.3 392.3,230.2 421.6,269.8 421.6,233.7 429.2,215.5 429.2,202.3 	"/>
	<polygon id="XMLID_76_" class="st12" points="407,275.2 392.3,280.5 392.3,315.6 410.7,294.2 421.6,269.8 	"/>
	<polygon id="XMLID_81_" class="st9" points="486.7,282.1 421.6,282.1 421.6,269.8 410.7,294.2 392.3,315.6 444.3,315.5
		444.3,302.5 488.8,296.1 	"/>
	<polygon id="XMLID_236_" class="st8" points="546.2,282.1 486.7,282.1 488.1,291.3 546.2,291.3 	"/>
	<polygon id="XMLID_83_" class="st12" points="488.8,296.1 444.3,302.5 444.3,315.5 469.7,315.5 491.1,315.5 	"/>
	<polygon id="XMLID_84_" class="st6" points="531.7,291.3 488.1,291.3 491.1,315.5 546.2,315.5 546.2,291.3 	"/>
	<polygon id="XMLID_18_" class="st6" points="436.9,215.5 417.7,215.5 421.6,233.7 434.5,229.2 473.7,215.5 	"/>
	<polygon id="XMLID_222_" class="st10" points="467.9,202.3 417.7,202.3 417.7,215.5 473.7,215.5 	"/>
</g>
<g id="I_1_">
	<polygon id="XMLID_128_" class="st8" points="307.5,172 307.5,211.7 275.4,172 	"/>
	<rect id="XMLID_127_" x="317.8" y="172" class="st10" width="19.3" height="92.9"/>
	<polygon id="XMLID_126_" class="st9" points="275.4,172 292.8,193.5 275.4,193.5 	"/>
	<rect id="XMLID_125_" x="307.5" y="172" class="st6" width="10.3" height="39.7"/>
	<polyline id="XMLID_123_" class="st11" points="307.5,211.7 307.5,245.3 317.8,245.3 317.8,211.7 307.5,211.7 	"/>
	<polyline id="XMLID_122_" class="st7" points="305.9,209.7 292.8,193.5 275.4,193.5 275.4,227.2 307.5,211.7 	"/>
	<line id="XMLID_121_" class="st6" x1="307.5" y1="211.7" x2="305.9" y2="209.7"/>
	<rect id="XMLID_9_" x="307.5" y="245.3" class="st9" width="10.3" height="19.6"/>
	<polygon id="XMLID_119_" class="st13" points="307.5,264.9 288.3,245.3 288.3,236.7 307.5,211.7 	"/>
	<polygon id="XMLID_118_" class="st12" points="275.4,227.2 275.4,257.6 288.3,245.3 307.5,211.7 	"/>
	<polygon id="XMLID_117_" class="st12" points="307.5,264.9 307.5,283.4 337.2,264.9 	"/>
	<polygon id="XMLID_116_" class="st10" points="288.3,245.3 288.3,271.6 288.3,298 275.4,298 275.4,257.6 	"/>
	<polygon id="XMLID_115_" class="st7" points="307.5,283.4 288.3,271.6 288.3,245.3 307.5,264.9 	"/>
	<polygon id="XMLID_114_" class="st6" points="288.3,298 307.5,283.4 288.3,271.6 	"/>
	<polygon id="XMLID_113_" class="st8" points="337.2,264.9 337.2,301.1 307.5,291.4 307.5,283.4 	"/>
	<polygon id="XMLID_112_" class="st11" points="307.5,283.4 288.3,298 307.5,307.4 	"/>
	<polygon id="XMLID_8_" class="st9" points="337.2,301.1 322,296.2 307.5,291.4 307.5,307.4 325.1,302.6 337.2,327.7 	"/>
	<polygon id="XMLID_109_" class="st7" points="307.5,307.4 307.5,327.7 330.5,313.8 325.1,302.6 	"/>
	<polygon id="XMLID_108_" class="st10" points="337.2,327.7 307.5,327.7 330.5,313.8 	"/>
	<polygon id="XMLID_107_" class="st12" points="288.3,298 288.3,328.9 297.9,328.9 307.5,307.4 	"/>
	<rect id="XMLID_106_" x="307.5" y="327.7" class="st13" width="11.5" height="16.2"/>
	<polygon id="XMLID_105_" class="st7" points="288.3,328.9 275.4,343.9 288.3,298 	"/>
	<rect id="XMLID_104_" x="319" y="327.7" class="st6" width="18.2" height="16.2"/>
	<polygon id="XMLID_103_" class="st6" points="297.9,328.9 307.5,343.9 307.5,307.4 	"/>
	<polygon id="XMLID_102_" class="st13" points="275.4,298 288.3,298 275.4,343.9 	"/>
	<polygon id="XMLID_101_" class="st8" points="307.5,343.9 297.9,328.9 288.3,328.9 275.4,343.9 	"/>
</g>
<g id="M_1_">
	<rect id="XMLID_165_" x="66.6" y="257.9" class="st6" width="15.8" height="85.9"/>
	<polygon id="XMLID_164_" class="st7" points="82.4,257.9 82.2,200.8 66.6,172 66.6,257.9 	"/>
	<polygon id="XMLID_163_" class="st8" points="82.2,200.8 97.2,172 113.4,195.8 	"/>
	<polygon id="XMLID_162_" class="st9" points="66.6,172 82.2,200.8 97.2,172 	"/>
	<polygon id="XMLID_161_" class="st10" points="113.4,195.8 113.4,232.2 96.9,221.8 82.2,221.8 82.2,200.8 	"/>
	<polygon id="XMLID_160_" class="st11" points="96.9,221.8 82.4,279.8 82.2,221.8 	"/>
	<polygon id="XMLID_159_" class="st12" points="82.4,279.8 96.9,279.8 96.9,221.8 	"/>
	<rect id="XMLID_158_" x="82.4" y="279.8" class="st13" width="14.5" height="64"/>
	<polygon id="XMLID_157_" class="st7" points="113.4,195.8 113.4,232.2 130,242.5 132.9,204.8 	"/>
	<polygon id="XMLID_156_" class="st6" points="97.2,172 129.2,172 149,200.8 132.9,204.8 113.4,195.8 	"/>
	<polygon id="XMLID_153_" class="st6" points="173.3,195.8 223.9,214.9 198.1,233.5 	"/>
	<polygon id="XMLID_152_" class="st13" points="159.5,216 173.3,195.8 198.1,233.5 176.9,248.6 	"/>
	<polygon id="XMLID_151_" class="st12" points="223.9,214.9 252.3,172 189.7,172 173.3,195.8 	"/>
	<path id="XMLID_150_" d="M223.9,214.9"/>
	<polygon id="XMLID_149_" class="st8" points="223.9,214.7 223.9,289.3 235.9,289.3 235.9,196.7 	"/>
	<polygon id="XMLID_148_" class="st9" points="252.3,172 252.3,232.2 235.9,232.2 235.9,196.7 	"/>
	<polygon id="XMLID_147_" class="st6" points="235.9,289.3 252.3,306.8 252.3,343.8 223.9,289.3 	"/>
	<polygon id="XMLID_146_" class="st7" points="223.9,343.8 252.3,343.8 223.9,289.3 	"/>
	<polygon id="XMLID_145_" class="st10" points="252.3,232.2 235.9,232.2 235.9,289.3 252.3,306.8 	"/>
	<polygon id="XMLID_144_" class="st8" points="129.2,343.8 129.2,300.9 113.4,343.8 	"/>
	<polygon id="XMLID_143_" class="st10" points="96.9,343.8 113.4,343.8 96.9,316 	"/>
	<polygon id="XMLID_142_" class="st7" points="96.9,298 96.9,305 96.9,316 113.4,343.8 127.4,305.7 129.2,300.9 	"/>
	<polygon id="XMLID_141_" class="st7" points="96.9,257.9 118.7,254.5 96.9,239.5 	"/>
	<polygon id="XMLID_140_" class="st10" points="115.8,279.8 118.7,254.5 96.9,257.9 	"/>
	<polygon id="XMLID_139_" class="st6" points="96.9,298 115.8,299.7 115.8,279.8 96.9,257.9 	"/>
	<polygon id="XMLID_138_" class="st9" points="118.7,254.5 115.8,279.8 115.8,299.7 129.2,300.9 129.2,279.8 129.2,275.1
		129.2,275.1 	"/>
	<polygon id="XMLID_137_" class="st6" points="147.8,253.5 96.9,221.8 96.9,239.5 118.7,254.5 129.2,275.1 159.5,308.8 159.5,261.2
			"/>
	<polygon id="XMLID_136_" class="st12" points="190.7,275.8 159.5,261.2 159.5,308.8 	"/>
	<polygon id="XMLID_135_" class="st7" points="223.9,214.7 190.7,275.8 159.5,261.2 	"/>
	<polygon id="XMLID_134_" class="st6" points="190.7,275.8 208.4,275.8 208.4,343.8 189.7,343.8 	"/>
	<polygon id="XMLID_133_" class="st6" points="208.2,243.6 223.9,258.6 223.9,214.7 	"/>
	<polygon id="XMLID_132_" class="st13" points="208.4,275.8 208.2,316 223.9,316 223.9,258.6 208.2,243.6 	"/>
	<path id="XMLID_131_" class="st8" d="M223.9,343.8"/>
	<polygon id="XMLID_130_" class="st12" points="208.2,316 223.9,316 223.9,343.8 208.4,343.8 	"/>
	<polygon id="XMLID_129_" class="st10" points="190.7,275.8 208.4,275.8 208.2,243.6 	"/>
	<polygon id="XMLID_350_" class="st10" points="129.2,275.1 138.2,247.4 159.5,261.2 	"/>
	<line id="XMLID_2_" class="st13" x1="82.5" y1="343.8" x2="82.5" y2="279.8"/>
	<polygon id="XMLID_155_" class="st9" points="130,242.5 147.7,253.6 159.5,216 149,200.8 132.9,204.8 	"/>
	<polygon id="XMLID_154_" class="st11" points="159.5,216 176.9,248.6 159.5,261.2 147.7,253.6 	"/>
</g>
</svg>
