<?xml version="1.0" encoding="utf-8"?>
<!-- Generator: Adobe Illustrator 19.0.0, SVG Export Plug-In . SVG Version: 6.00 Build 0)  -->
<svg version="1.1" id="Layer_1" xmlns="http://www.w3.org/2000/svg" xmlns:xlink="http://www.w3.org/1999/xlink" x="0px" y="0px"
	 viewBox="0 0 897.6 172" style="enable-background:new 0 0 897.6 172;" xml:space="preserve">
<style type="text/css">
	.st0{display:none;opacity:0.27;}
	.st1{display:inline;}
	.st2{display:none;opacity:0.24;}
	.st3{display:none;opacity:0.34;}
	.st4{display:none;opacity:0.36;}
	.st5{display:none;opacity:0.25;}
	.st6{fill:#7CCED2;}
	.st7{fill:#F2CC81;}
	.st8{fill:#938D8F;}
	.st9{fill:#EE6D54;}
	.st10{fill:#547F69;}
	.st11{fill:#B7926E;}
	.st12{fill:#333033;}
	.st13{fill:#EF928B;}
	.st14{display:none;fill:none;stroke:#FFFFFF;stroke-miterlimit:10;}
	.st15{fill:none;stroke:#FFFFFF;stroke-miterlimit:10;}
	.st16{fill:none;}
</style>
<g id="XMLID_24_" class="st0">
	<rect id="XMLID_248_" x="722.7" y="-0.8" class="st1" width="185.7" height="61.8"/>
	<rect id="XMLID_249_" x="722.7" y="109.3" class="st1" width="185.7" height="61.8"/>
	<polygon id="XMLID_247_" class="st1" points="908.4,109.3 851.4,152 722.7,60.9 771.9,13 	"/>
</g>
<g id="XMLID_23_" class="st2">
	<rect id="XMLID_170_" x="504.7" y="-0.8" class="st1" width="61.8" height="171.9"/>
	<rect id="XMLID_169_" x="509.7" y="-0.8" class="st1" width="171.9" height="61.8"/>
	<rect id="XMLID_168_" x="509.7" y="107.4" class="st1" width="171.9" height="44.6"/>
	<rect id="XMLID_167_" x="628.7" y="-0.8" class="st1" width="61.8" height="171.9"/>
</g>
<polygon id="XMLID_166_" class="st3" points="472.4,60.9 472.4,-0.8 347.9,-0.8 302.2,-0.8 286.7,-0.8 286.7,171 302.2,171 
	347.9,171 472.4,171 472.4,109.3 347.9,109.3 347.9,60.9 "/>
<rect id="XMLID_4_" x="199" y="-650.8" class="st4" width="61.8" height="171.9"/>
<polygon id="XMLID_3_" class="st5" points="51.2,-650.8 81.4,-606.8 111.7,-650.8 174.3,-650.8 174.3,-479 111.7,-479 112.7,-547 
	81.4,-514 51.2,-547.7 51.2,-479 -11.4,-479 -11.4,-650.8 "/>
<g id="M">
	<rect id="XMLID_29_" x="-11.4" y="-564.9" class="st6" width="15.8" height="85.9"/>
	<polygon id="XMLID_32_" class="st7" points="4.4,-564.9 4.4,-622 -11.4,-650.8 -11.4,-564.9 	"/>
	<polygon id="XMLID_34_" class="st8" points="4.1,-622 19.1,-650.8 35.1,-627 	"/>
	<polygon id="XMLID_35_" class="st9" points="-11.7,-650.8 4.1,-622 19.1,-650.8 	"/>
	<polygon id="XMLID_36_" class="st10" points="35.4,-627 35.4,-590.6 19.5,-601 4.1,-601 4.1,-622 	"/>
	<polygon id="XMLID_37_" class="st11" points="19.4,-601 4.6,-543 4.1,-601 	"/>
	<polygon id="XMLID_38_" class="st12" points="4.4,-543 18.9,-543 18.9,-601 	"/>
	<rect id="XMLID_26_" x="4.4" y="-543" class="st13" width="14.5" height="64"/>
	<polygon id="XMLID_33_" class="st7" points="35.4,-627 35.4,-591.3 52,-580.6 54.9,-618 	"/>
	<polygon id="XMLID_42_" class="st6" points="19.1,-650.8 51.2,-650.8 71,-622 54.9,-618 35.4,-627 	"/>
	<polygon id="XMLID_43_" class="st9" points="52,-580.6 69.8,-569.3 81.4,-606.8 71,-622 54.9,-618 	"/>
	<polygon id="XMLID_39_" class="st11" points="81.4,-606.8 98.9,-574.2 81.4,-561.6 69.8,-569.3 	"/>
	<polygon id="XMLID_45_" class="st6" points="95.3,-627 145.9,-607.9 120.1,-589.3 	"/>
	<polygon id="XMLID_44_" class="st13" points="81.4,-606.8 95.3,-627 120.1,-589.3 98.9,-574.2 	"/>
	<polygon id="XMLID_46_" class="st12" points="145.9,-607.9 174.3,-650.8 111.7,-650.8 95.3,-627 	"/>
	<path id="XMLID_47_" d="M145.9-607.9"/>
	<polygon id="XMLID_48_" class="st8" points="145.9,-608.1 145.9,-533.5 157.9,-533.5 157.9,-626.1 	"/>
	<polygon id="XMLID_49_" class="st9" points="174.3,-650.8 174.3,-590.6 157.9,-590.6 157.9,-626.1 	"/>
	<polygon id="XMLID_50_" class="st6" points="157.9,-533.5 174.3,-516 174.3,-479 145.9,-533.5 	"/>
	<polygon id="XMLID_52_" class="st7" points="145.9,-479 174.3,-479 145.9,-533.5 	"/>
	<polygon id="XMLID_51_" class="st10" points="174.3,-590.6 157.9,-590.6 157.9,-533.5 174.3,-516 	"/>
	<polygon id="XMLID_54_" class="st8" points="51.2,-479 51.2,-521.9 35.4,-479 	"/>
	<polygon id="XMLID_55_" class="st10" points="18.9,-479 35.4,-479 18.9,-506.8 	"/>
	<polygon id="XMLID_71_" class="st7" points="18.9,-524.8 18.9,-517.8 18.9,-506.8 35.4,-479 49.4,-517.1 51.2,-521.9 	"/>
	<polygon id="XMLID_60_" class="st7" points="18.9,-564.9 40.7,-568.3 18.9,-583.3 	"/>
	<polygon id="XMLID_61_" class="st10" points="37.8,-543 40.7,-568.3 18.9,-564.9 	"/>
	<polygon id="XMLID_59_" class="st6" points="18.9,-524.8 37.8,-523.1 37.8,-543 18.9,-564.9 	"/>
	<polygon id="XMLID_57_" class="st9" points="40.7,-568.3 37.8,-543 37.8,-523.1 51.2,-521.9 51.2,-543 51.2,-547.7 51.2,-547.7 	
		"/>
	<polygon id="XMLID_70_" class="st6" points="69.8,-569.3 18.9,-601.9 18.9,-583.3 40.7,-568.3 51.2,-547.7 81.4,-514 81.4,-561.6 	
		"/>
	<polygon id="XMLID_65_" class="st12" points="112.7,-547 81.4,-561.6 81.4,-514 	"/>
	<polygon id="XMLID_66_" class="st7" points="145.9,-608.1 112.7,-547 81.4,-561.6 	"/>
	<polygon id="XMLID_62_" class="st6" points="112.7,-547 130.4,-547 130.4,-479 111.7,-479 	"/>
	<polygon id="XMLID_68_" class="st6" points="130.2,-579.2 145.9,-564.2 145.9,-608.1 	"/>
	<polygon id="XMLID_69_" class="st13" points="130.4,-547 130.2,-506.8 145.9,-506.8 145.9,-564.2 130.2,-579.2 	"/>
	<path id="XMLID_67_" class="st8" d="M145.9-479"/>
	<polygon id="XMLID_56_" class="st12" points="130.2,-506.8 145.9,-506.8 145.9,-479 130.4,-479 	"/>
	<polygon id="XMLID_63_" class="st10" points="112.7,-547 130.4,-547 130.2,-579.2 	"/>
</g>
<g id="XMLID_10_">
	<rect id="XMLID_11_" x="245.7" y="-605.5" class="st6" width="51" height="55.6"/>
	<rect id="XMLID_27_" x="464" y="-540.3" class="st11" width="51" height="55.6"/>
	<rect id="XMLID_28_" x="389.7" y="-605.5" class="st9" width="51" height="55.6"/>
	<rect id="XMLID_31_" x="245.7" y="-540.3" class="st10" width="51" height="55.6"/>
	<rect id="XMLID_41_" x="311.7" y="-540.3" class="st12" width="51" height="55.6"/>
	<rect id="XMLID_30_" x="316.2" y="-605.5" class="st13" width="51" height="55.6"/>
	<rect id="XMLID_21_" x="464" y="-603.2" class="st7" width="51" height="51"/>
	<rect id="XMLID_25_" x="389.7" y="-540.3" class="st8" width="51" height="55.6"/>
</g>
<polyline id="XMLID_40_" class="st14" points="19.4,-479 19.4,-493 19.4,-543 19.4,-601 81.4,-561 145.4,-607 145.4,-479 "/>
<polyline id="XMLID_310_" class="st15" points="908.4,33.7 760.4,33.7 879,140.2 722.7,138.7 "/>
<line id="XMLID_74_" class="st15" x1="231.1" y1="-664.6" x2="231.1" y2="-466"/>
<g id="XMLID_245_">
	<polyline id="XMLID_243_" class="st15" points="535.6,171 535.6,30 659.6,30 659.6,171 	"/>
	<line id="XMLID_175_" class="st15" x1="535.6" y1="129.7" x2="659.6" y2="129.7"/>
</g>
<polyline id="XMLID_290_" class="st15" points="472.4,30 319,30 319,142.3 472.4,142.3 "/>
<g id="XMLID_184_">
	<g id="XMLID_7_">
		<rect id="XMLID_165_" x="0" y="85.9" class="st6" width="15.8" height="85.9"/>
		<polygon id="XMLID_164_" class="st7" points="15.8,85.9 15.8,28.9 0,0 0,85.9 		"/>
		<polygon id="XMLID_163_" class="st8" points="15.6,28.9 30.6,0 46.9,23.9 		"/>
		<polygon id="XMLID_162_" class="st9" points="0,0 15.6,28.9 30.6,0 		"/>
		<polygon id="XMLID_161_" class="st10" points="46.9,23.9 46.9,59.5 30.4,49 15.6,49.9 15.6,28.9 		"/>
		<polygon id="XMLID_160_" class="st11" points="30.4,49 15.9,107.9 15.6,49.9 		"/>
		<polygon id="XMLID_5_" class="st12" points="30.4,49 30.3,107.9 15.9,107.9 		"/>
		<rect id="XMLID_158_" x="15.9" y="107.9" class="st13" width="14.5" height="64"/>
		<polygon id="XMLID_157_" class="st7" points="46.9,23.9 46.9,59.5 63.4,70.2 66.4,32.9 		"/>
		<polygon id="XMLID_156_" class="st6" points="30.6,0 62.6,0 82.5,28.9 66.4,32.9 46.9,23.9 		"/>
		<polygon id="XMLID_153_" class="st6" points="106.7,23.9 157.3,43 131.6,61.3 		"/>
		<polygon id="XMLID_152_" class="st13" points="92.9,44 106.7,23.9 131.6,61.3 110.3,76.7 		"/>
		<polygon id="XMLID_151_" class="st12" points="157.3,43 185.7,0 123.2,0 106.7,23.9 		"/>
		<path id="XMLID_150_" d="M157.3,43"/>
		<polygon id="XMLID_149_" class="st8" points="157.3,42.7 157.3,117.4 169.4,117.4 169.4,24.7 		"/>
		<polygon id="XMLID_148_" class="st9" points="185.7,0 185.7,60.2 169.4,60.2 169.4,24.7 		"/>
		<polygon id="XMLID_147_" class="st6" points="169.4,117.4 185.7,134.9 185.7,171.9 157.3,117.4 		"/>
		<polygon id="XMLID_146_" class="st7" points="157.3,171.9 185.7,171.9 157.3,117.4 		"/>
		<polygon id="XMLID_145_" class="st10" points="185.7,60.2 169.4,60.2 169.4,117.4 185.7,134.9 		"/>
		<polygon id="XMLID_144_" class="st8" points="62.6,171.9 62.6,128.9 46.9,171.9 		"/>
		<polygon id="XMLID_143_" class="st10" points="30.3,171.9 46.9,171.9 30.3,144 		"/>
		<polygon id="XMLID_142_" class="st7" points="30.3,126 30.3,133 30.3,144 46.9,171.9 60.8,133.7 62.6,128.9 		"/>
		<polygon id="XMLID_141_" class="st7" points="30.3,86.1 52.1,82.5 30.3,67.5 		"/>
		<polygon id="XMLID_139_" class="st6" points="30.3,126 49.2,127.7 49.2,107.9 30.3,86.1 		"/>
		<polygon id="XMLID_6_" class="st9" points="62.6,103.1 62.6,128.9 49.2,127.7 49.2,107.9 52.1,82.5 		"/>
		<polygon id="XMLID_136_" class="st12" points="124.2,103.8 92.9,89.2 92.9,136.8 		"/>
		<rect id="XMLID_134_" x="124.2" y="103.8" class="st6" width="17.7" height="68.1"/>
		<polygon id="XMLID_133_" class="st6" points="141.6,71.7 157.3,86.6 157.3,42.7 		"/>
		<polygon id="XMLID_132_" class="st13" points="141.9,103.8 141.9,144 157.3,144 157.3,86.6 141.6,71.7 		"/>
		<rect id="XMLID_130_" x="141.9" y="144" class="st12" width="15.5" height="27.8"/>
		<polygon id="XMLID_129_" class="st10" points="124.2,103.8 141.9,103.8 141.6,71.7 		"/>
		<polygon id="XMLID_155_" class="st9" points="63.4,70.2 81.2,81.6 92.9,44 82.5,28.9 66.4,32.9 		"/>
		<polygon id="XMLID_87_" class="st7" points="157.3,42.7 124.2,103.8 92.9,89.2 110.3,76.7 		"/>
		<polygon id="XMLID_88_" class="st10" points="30.3,86.1 49.2,107.9 52.1,82.5 		"/>
		<polygon id="XMLID_90_" class="st6" points="71.6,75.4 62.6,103.1 52.1,82.5 30.3,67.5 30.4,49 46.9,59.5 63.4,70.2 		"/>
		<polygon id="XMLID_92_" class="st6" points="62.6,103.1 92.9,136.8 92.9,89.2 		"/>
		<polygon id="XMLID_86_" class="st11" points="92.9,44 81.2,81.6 92.9,89.2 110.3,76.7 		"/>
		<polygon id="XMLID_91_" class="st10" points="81.2,81.6 92.9,89.2 62.6,103.1 71.6,75.4 		"/>
	</g>
	<g id="XMLID_89_">
		<rect id="XMLID_127_" x="251.3" class="st10" width="19.3" height="92.9"/>
		<polygon id="XMLID_126_" class="st9" points="208.9,0 226.2,21.5 208.9,21.5 		"/>
		<rect id="XMLID_125_" x="240.9" class="st6" width="10.3" height="39.8"/>
		<polyline id="XMLID_123_" class="st11" points="240.9,39.8 240.9,73.3 251.3,73.3 251.3,39.8 240.9,39.8 		"/>
		<line id="XMLID_121_" class="st6" x1="240.9" y1="39.8" x2="239.3" y2="37.8"/>
		<rect id="XMLID_9_" x="240.9" y="73.3" class="st9" width="10.3" height="19.6"/>
		<polygon id="XMLID_119_" class="st13" points="240.9,92.9 221.8,73.3 240.9,39.8 		"/>
		<polygon id="XMLID_118_" class="st12" points="208.9,55.3 208.9,85.6 221.8,73.3 240.9,39.8 		"/>
		<polygon id="XMLID_117_" class="st12" points="240.9,92.9 240.9,111.4 270.6,92.9 		"/>
		<polygon id="XMLID_116_" class="st10" points="221.8,73.3 221.8,99.7 221.8,126 208.9,126 208.9,85.6 		"/>
		<polygon id="XMLID_115_" class="st7" points="240.9,111.4 221.8,99.7 221.8,73.3 240.9,92.9 		"/>
		<polygon id="XMLID_114_" class="st6" points="221.8,126 240.9,111.4 221.8,99.7 		"/>
		<polygon id="XMLID_113_" class="st8" points="270.6,92.9 270.6,129.2 240.9,119.4 240.9,111.4 		"/>
		<polygon id="XMLID_112_" class="st11" points="240.9,111.4 221.8,126 240.9,135.4 		"/>
		<polygon id="XMLID_8_" class="st9" points="270.6,129.2 255.5,124.2 240.9,119.4 240.9,135.4 258.5,130.6 264.2,141.7 
			270.6,155.8 		"/>
		<polygon id="XMLID_109_" class="st7" points="240.9,135.4 240.9,155.8 264.2,141.7 258.5,130.6 		"/>
		<polygon id="XMLID_108_" class="st10" points="270.6,155.8 240.9,155.8 264.2,141.7 		"/>
		<polygon id="XMLID_107_" class="st12" points="221.8,126 221.8,156.9 231.4,156.9 240.9,135.4 		"/>
		<rect id="XMLID_106_" x="240.9" y="155.8" class="st13" width="11.5" height="16.2"/>
		<polygon id="XMLID_105_" class="st7" points="221.8,156.9 208.9,171.9 221.8,126 		"/>
		<rect id="XMLID_104_" x="252.4" y="155.8" class="st6" width="18.2" height="16.2"/>
		<polygon id="XMLID_103_" class="st6" points="231.4,156.9 240.9,171.9 240.9,135.4 		"/>
		<polygon id="XMLID_102_" class="st13" points="208.9,126 221.8,126 208.9,171.9 		"/>
		<polygon id="XMLID_101_" class="st8" points="240.9,171.9 231.4,156.9 221.8,156.9 208.9,171.9 		"/>
		<polygon id="XMLID_2_" class="st7" points="208.9,21.5 208.9,55.3 240.9,39.8 226.2,21.5 		"/>
		<polygon id="XMLID_122_" class="st8" points="208.9,0 240.9,0 240.9,39.8 226.2,21.5 		"/>
	</g>
	<g id="XMLID_131_">
		<rect id="XMLID_98_" x="435.6" y="160.1" class="st12" width="44" height="11.8"/>
		<polygon id="XMLID_100_" class="st10" points="479.6,143.6 479.6,160.1 453.4,160.1 		"/>
		<polygon id="XMLID_99_" class="st7" points="435.6,160.1 435.6,143.6 479.6,143.6 453.4,160.1 		"/>
		<polygon id="XMLID_81_" class="st13" points="370.4,143.6 370.4,157.8 409.1,158.9 398.1,171.9 435.6,171.9 435.6,143.6 		"/>
		<polygon id="XMLID_174_" class="st6" points="386.7,158.1 351.1,171.9 398.1,171.9 409.1,158.9 		"/>
		<polygon id="XMLID_178_" class="st10" points="370.4,143.6 325.7,143.6 325.7,158.1 		"/>
		<polygon id="XMLID_182_" class="st12" points="309.4,171.9 293.9,150.6 293.9,171.9 		"/>
		<polygon id="XMLID_183_" class="st6" points="317.3,171.9 309.4,146.6 317.3,129.1 		"/>
		<polygon id="XMLID_80_" class="st8" points="311.2,152.5 309.4,146.6 293.9,144.6 293.9,150.6 309.4,171.9 317.3,171.9 		"/>
		<polygon id="XMLID_181_" class="st7" points="317.3,129.1 293.9,129.1 293.9,144.6 309.4,146.6 		"/>
		<polygon id="XMLID_187_" class="st13" points="317.3,112.8 304.6,129.1 317.3,129.1 		"/>
		<polygon id="XMLID_79_" class="st11" points="304.7,100.7 293.9,112.8 293.9,129.1 304.6,129.1 317.3,112.8 		"/>
		<polygon id="XMLID_188_" class="st10" points="293.9,112.8 312.1,92.3 303,75.4 293.9,78.4 		"/>
		<polygon id="XMLID_193_" class="st6" points="325.7,80.6 303,75.4 312.1,92.3 304.7,100.7 325.7,96.4 		"/>
		<polygon id="XMLID_195_" class="st12" points="325.7,32.6 303,75.4 325.7,80.6 		"/>
		<polygon id="XMLID_196_" class="st9" points="304.1,44.9 325.7,32.6 303,75.4 		"/>
		<polygon id="XMLID_194_" class="st11" points="304.6,30.9 325.7,30.4 325.7,32.6 304.1,44.9 		"/>
		<polygon id="XMLID_202_" class="st8" points="325.7,30.4 359.4,30.4 359.4,19 321.4,19 		"/>
		<polygon id="XMLID_83_" class="st9" points="318.4,0 316.9,7.1 321.4,19 349.6,0 		"/>
		<polygon id="XMLID_191_" class="st6" points="321.4,19 359.4,19 359.4,0 349.6,0 		"/>
		<polygon id="XMLID_77_" class="st7" points="396.1,0 382.7,30.4 415.1,30.4 		"/>
		<polygon id="XMLID_76_" class="st9" points="396.1,0 415.1,30.4 416.7,19 418.6,0 		"/>
		<polygon id="XMLID_211_" class="st12" points="424.8,0 435.6,12.2 416.7,19 418.6,0 		"/>
		<polygon id="XMLID_212_" class="st8" points="429.9,30.4 424.6,16 416.7,19 415.1,30.4 		"/>
		<polygon id="XMLID_213_" class="st10" points="435.6,12.2 447.9,19 450.6,0 424.8,0 		"/>
		<polygon id="XMLID_20_" class="st7" points="450.6,0 447.9,19 435.6,12.2 424.6,16 429.9,30.4 464.3,30.4 479.6,30.4 479.6,19 
			479.6,0 		"/>
		<polygon id="XMLID_219_" class="st12" points="479.6,30.4 479.6,61.8 444.8,61.8 452.4,30.4 		"/>
		<polygon id="XMLID_221_" class="st6" points="429.9,30.4 444.8,61.8 452.4,30.4 		"/>
		<polygon id="XMLID_220_" class="st11" points="401.4,30.4 414.6,30.4 429.9,30.4 429.9,50.9 410.3,50.9 		"/>
		<polygon id="XMLID_223_" class="st13" points="444.8,61.8 429.9,61.8 429.9,30.4 		"/>
		<rect id="XMLID_224_" x="410.3" y="50.9" class="st7" width="19.6" height="10.9"/>
		<polygon id="XMLID_225_" class="st8" points="407.1,43.5 355.1,61.8 410.3,61.8 410.3,50.9 		"/>
		<polygon id="XMLID_231_" class="st13" points="325.7,58.2 325.7,108.5 355.1,97.9 		"/>
		<polygon id="XMLID_17_" class="st7" points="325.7,30.4 325.7,58.2 355.1,97.9 355.1,61.8 351.1,30.4 		"/>
		<polygon id="XMLID_13_" class="st12" points="340.4,103.2 325.7,108.5 325.7,143.6 344.2,122.2 355.1,97.9 		"/>
		<polygon id="XMLID_16_" class="st9" points="418.4,110.1 355.1,110.1 355.1,97.9 344.2,122.2 325.7,143.6 377.7,143.6 
			377.7,130.6 420.7,119.4 		"/>
		<polygon id="XMLID_236_" class="st8" points="479.6,110.1 418.4,110.1 420.7,119.4 479.6,119.4 		"/>
		<polygon id="XMLID_14_" class="st12" points="420.7,119.4 377.6,130.6 377.6,143.6 424.5,143.6 		"/>
		<polygon id="XMLID_18_" class="st6" points="370.4,43.5 351.1,43.5 355.1,61.8 407.1,43.5 		"/>
		<polygon id="XMLID_222_" class="st10" points="401.4,30.4 351.1,30.4 351.1,43.5 407.1,43.5 		"/>
		<polygon id="XMLID_12_" class="st7" points="386.7,158.1 351.1,171.9 325.1,171.9 325.7,158.1 370.4,143.6 370.4,157.8 		"/>
		<rect id="XMLID_180_" x="317.3" y="112.8" class="st9" width="8.4" height="59.1"/>
		<polygon id="XMLID_82_" class="st10" points="318.4,0 293.9,0 293.9,29.4 304.6,30.9 325.7,30.4 321.4,19 316.9,7.1 		"/>
		<polygon id="XMLID_85_" class="st13" points="293.9,29.4 293.9,78.4 303,75.4 304.1,44.9 304.6,30.9 		"/>
		<polygon id="XMLID_84_" class="st7" points="304.7,100.7 325.7,96.4 325.7,112.8 317.3,112.8 		"/>
		<polygon id="XMLID_93_" class="st6" points="479.6,119.4 479.6,143.6 435.6,143.6 424.5,143.6 420.7,119.4 		"/>
		<polygon id="XMLID_128_" class="st12" points="359.4,0 396.1,0 382.7,30.4 359.4,30.4 359.4,19 		"/>
	</g>
	<g id="XMLID_177_">
		<polygon id="XMLID_250_" class="st12" points="533.7,171.9 502.9,171.9 502.9,145.8 		"/>
		<polygon id="XMLID_246_" class="st6" points="533.7,130.6 502.9,130.6 502.9,145.8 533.7,171.9 		"/>
		<polygon id="XMLID_252_" class="st11" points="502.9,89.9 518.3,130.6 502.9,130.6 		"/>
		<polygon id="XMLID_251_" class="st9" points="533.7,130.6 533.7,72.6 502.9,89.9 518.3,130.6 		"/>
		<polygon id="XMLID_255_" class="st10" points="510.6,56 533.7,30.9 533.7,72.6 		"/>
		<polygon id="XMLID_256_" class="st12" points="502.9,19.1 522.2,0 502.9,0 		"/>
		<polygon id="XMLID_253_" class="st6" points="575.6,0 575.6,13.9 527.3,13.9 522.2,0 		"/>
		<polygon id="XMLID_258_" class="st11" points="563.1,30.4 575.6,13.9 527.3,13.9 533.7,30.9 		"/>
		<polygon id="XMLID_260_" class="st8" points="606.6,30.4 575.6,13.9 563.1,30.4 		"/>
		<polygon id="XMLID_259_" class="st10" points="575.6,0 638.8,30.4 606.6,30.4 575.6,13.9 		"/>
		<polygon id="XMLID_300_" class="st12" points="630.7,0 575.6,0 638.8,30.4 657.7,30.9 		"/>
		<polygon id="XMLID_266_" class="st9" points="657.7,0 630.7,0 657.7,30.9 		"/>
		<polygon id="XMLID_267_" class="st13" points="688.6,0 688.6,30.9 673.1,30.4 673.1,15.5 		"/>
		<polygon id="XMLID_269_" class="st10" points="673.2,80.3 688.6,30.9 673.1,30.4 		"/>
		<polygon id="XMLID_268_" class="st10" points="542.9,171.9 542.9,139.6 564.6,139.6 564.6,130.6 533.7,130.6 533.7,171.9 		"/>
		<polygon id="XMLID_270_" class="st12" points="673.2,80.3 673.2,95.6 688.6,95.6 688.6,30.9 		"/>
		<polygon id="XMLID_271_" class="st6" points="657.7,80.3 657.7,101.6 669.9,114.3 688.6,95.6 673.2,95.6 673.2,80.3 		"/>
		<polygon id="XMLID_262_" class="st8" points="669.9,114.3 657.7,101.6 657.7,121.3 657.7,145.8 671.3,121.3 688.6,121.3 
			688.6,95.6 		"/>
		<polygon id="XMLID_275_" class="st9" points="673.2,171.9 673.2,144.2 688.6,142.6 688.6,171.9 		"/>
		<polygon id="XMLID_94_" class="st10" points="657.7,145.8 657.7,171.9 664.5,171.9 673.2,171.9 673.2,144.2 		"/>
		<polygon id="XMLID_277_" class="st13" points="542.9,139.6 564.6,152.9 564.6,171.9 542.9,171.9 		"/>
		<polygon id="XMLID_292_" class="st7" points="564.6,139.6 583.3,152.9 564.6,152.9 542.9,139.6 		"/>
		<polygon id="XMLID_294_" class="st12" points="564.6,130.6 590.6,130.6 564.6,139.6 		"/>
		<polygon id="XMLID_293_" class="st8" points="583.3,152.9 614.3,130.6 590.6,130.6 564.6,139.6 		"/>
		<polygon id="XMLID_296_" class="st9" points="626.8,152.9 614.3,130.6 583.3,152.9 		"/>
		<polygon id="XMLID_297_" class="st11" points="641.3,130.6 626.8,152.9 614.3,130.6 		"/>
		<polygon id="XMLID_298_" class="st6" points="647.9,130.6 642.6,171.9 626.8,171.9 626.8,152.9 641.3,130.6 		"/>
		<polygon id="XMLID_295_" class="st12" points="657.7,130.6 647.9,130.6 642.6,171.9 657.7,171.9 		"/>
		<rect id="XMLID_261_" x="553.8" y="61.8" class="st12" width="10.8" height="46.5"/>
		<polygon id="XMLID_96_" class="st7" points="533.7,89.9 533.7,130.6 546.3,130.6 553.8,108.3 553.8,70.2 		"/>
		<polygon id="XMLID_301_" class="st8" points="551.5,30.4 553.8,61.8 553.8,70.2 533.7,89.9 533.7,30.9 		"/>
		<polygon id="XMLID_302_" class="st9" points="577.6,30.4 553.8,61.8 551.5,30.4 		"/>
		<polygon id="XMLID_274_" class="st6" points="564.6,61.8 638.8,30.4 577.6,30.4 553.8,61.8 		"/>
		<polygon id="XMLID_304_" class="st8" points="611.3,61.8 606.6,44 564.6,61.8 		"/>
		<polygon id="XMLID_303_" class="st11" points="622.4,37.3 626.8,61.8 611.3,61.8 606.6,44 		"/>
		<polygon id="XMLID_305_" class="st13" points="626.8,61.8 648.5,56 638.8,30.4 622.4,37.3 		"/>
		<polygon id="XMLID_110_" class="st10" points="648.5,56 626.8,61.8 626.8,81.9 657.7,80.3 		"/>
		<polygon id="XMLID_97_" class="st9" points="626.8,81.9 626.8,97.3 650.2,103.2 657.7,130.6 657.7,80.3 		"/>
		<polygon id="XMLID_312_" class="st8" points="553.8,108.3 576.6,130.6 546.3,130.6 		"/>
		<polygon id="XMLID_313_" class="st13" points="564.6,108.3 595.7,108.3 596.3,130.6 576.6,130.6 553.8,108.3 		"/>
		<polygon id="XMLID_314_" class="st7" points="626.8,97.3 626.8,108.3 627.8,130.6 657.7,130.6 650.2,103.2 		"/>
		<polygon id="XMLID_95_" class="st10" points="626.8,108.3 595.7,108.3 596.3,130.6 614.3,130.6 627.8,130.6 		"/>
		<polygon id="XMLID_111_" class="st13" points="688.6,121.3 688.6,142.6 673.2,144.2 657.7,145.8 671.3,121.3 		"/>
		<polygon id="XMLID_120_" class="st7" points="673.1,15.5 673.1,30.4 673.2,80.3 657.7,80.3 657.7,30.9 		"/>
		<polygon id="XMLID_15_" class="st8" points="638.8,30.4 657.7,30.9 657.7,80.3 648.5,56 		"/>
		<polygon id="XMLID_124_" class="st13" points="502.9,50.4 502.9,89.9 533.7,72.6 510.6,56 		"/>
		<polygon id="XMLID_135_" class="st7" points="502.9,19.1 502.9,50.4 510.6,56 533.7,30.9 527.3,13.9 522.2,0 		"/>
		<polygon id="XMLID_78_" class="st11" points="657.7,0 688.6,0 673.1,15.5 657.7,30.9 		"/>
	</g>
	<g id="XMLID_179_">
		<polygon id="XMLID_318_" class="st6" points="711.9,140 752.4,140.5 761.6,172 711.9,172 		"/>
		<polygon id="XMLID_319_" class="st9" points="816.3,35.2 816.3,50.5 867.3,50.5 897.6,35.2 		"/>
		<polygon id="XMLID_323_" class="st11" points="844.9,61.9 816.3,50.5 867.3,50.5 		"/>
		<polygon id="XMLID_327_" class="st10" points="844.9,61.9 829,61.9 859.6,83.5 800.4,79.6 816.3,50.5 		"/>
		<polygon id="XMLID_328_" class="st7" points="837.1,82 840.9,116.3 800.4,79.6 		"/>
		<polygon id="XMLID_329_" class="st6" points="859.6,83.5 897.6,110.2 866.8,140.6 840.9,116.3 837.1,82 		"/>
		<polygon id="XMLID_326_" class="st9" points="785.6,140.5 822.8,140.5 841.8,172 774,156 		"/>
		<polygon id="XMLID_331_" class="st12" points="761.6,172 774,156 841.8,172 		"/>
		<polygon id="XMLID_332_" class="st12" points="866.8,140.6 897.6,172 897.6,110.2 		"/>
		<polygon id="XMLID_335_" class="st13" points="866.8,140.6 866.8,172 897.6,172 		"/>
		<rect id="XMLID_334_" x="711.9" y="110.2" class="st13" width="52.1" height="11.1"/>
		<polygon id="XMLID_336_" class="st6" points="724.9,0 759.6,95.6 711.9,61.9 711.9,0 		"/>
		<polygon id="XMLID_338_" class="st6" points="831.9,0 897.6,35.2 897.6,0 		"/>
		<polygon id="XMLID_339_" class="st6" points="711.9,121.3 763.9,121.3 805.3,140.5 		"/>
		<polygon id="XMLID_337_" class="st11" points="763.9,110.2 780.2,110.2 769.1,102.4 825.9,102.4 852.8,127.2 805.3,127.2 
			805.3,140.5 763.9,121.3 		"/>
		<polygon id="XMLID_341_" class="st9" points="780.2,61.5 759.6,95.6 769.1,102.4 825.9,102.4 		"/>
		<polygon id="XMLID_343_" class="st10" points="744.7,54.6 780.2,61.5 759.6,95.6 		"/>
		<polygon id="XMLID_344_" class="st7" points="751,35.2 744.7,54.6 780.2,61.5 		"/>
		<polygon id="XMLID_342_" class="st8" points="764.4,0 751,35.2 737.4,34.6 724.9,0 		"/>
		<polygon id="XMLID_346_" class="st12" points="744.7,54.6 751,35.2 737.4,34.6 		"/>
		<polygon id="XMLID_345_" class="st9" points="764.4,0 831.9,0 835.2,22.3 751,35.2 		"/>
		<polygon id="XMLID_348_" class="st10" points="837.1,35.2 835.2,22.3 751,35.2 		"/>
		<polygon id="XMLID_349_" class="st7" points="897.6,35.2 837.1,35.2 831.9,0 		"/>
		<polygon id="XMLID_137_" class="st10" points="752.4,140.5 785.6,140.5 774,156 761.6,172 		"/>
		<polygon id="XMLID_140_" class="st7" points="711.9,121.3 711.9,140 752.4,140.5 785.6,140.5 805.3,140.5 		"/>
		<polygon id="XMLID_154_" class="st8" points="866.8,172 866.8,140.6 850.5,140.6 		"/>
		<polygon id="XMLID_138_" class="st7" points="841.8,172 866.8,172 850.5,140.6 822.8,140.5 		"/>
		<polygon id="XMLID_159_" class="st12" points="805.3,127.2 805.3,140.5 822.8,140.5 850.5,140.6 866.8,140.6 852.8,127.2 		"/>
		<polyline id="XMLID_172_" class="st16" points="724.9,0 711.9,0 711.9,61.8 759.6,95.6 744.7,54.6 737.4,34.6 724.9,0.2 		"/>
		<polygon id="XMLID_173_" class="st13" points="751,35.2 769.3,35.2 805.1,71.1 800.4,79.6 780.2,61.5 		"/>
		<polygon id="XMLID_171_" class="st12" points="769.3,35.2 816.3,35.2 816.3,50.5 805.1,71.1 		"/>
		<polygon id="XMLID_176_" class="st8" points="897.6,35.2 897.6,61.9 844.9,61.9 867.3,50.5 		"/>
	</g>
</g>
</svg>
