<?xml version="1.0" standalone="no"?>
<!DOCTYPE svg PUBLIC "-//W3C//DTD SVG 20010904//EN"
 "http://www.w3.org/TR/2001/REC-SVG-20010904/DTD/svg10.dtd">
<svg version="1.0" xmlns="http://www.w3.org/2000/svg"
 width="260.000000pt" height="260.000000pt" viewBox="0 0 260.000000 260.000000"
 preserveAspectRatio="xMidYMid meet">
<metadata>
Created by potrace 1.11, written by Peter Selinger 2001-2013
</metadata>
<g transform="translate(0.000000,260.000000) scale(0.100000,-0.100000)"
fill="#000000" stroke="none">
<path d="M52 1296 l0 -1164 424 -1 424 0 0 460 c0 299 3 459 10 459 6 0 10 -3
10 -7 0 -5 21 -30 47 -58 80 -87 126 -138 203 -224 41 -47 90 -101 107 -120
l33 -36 47 51 c27 28 116 122 198 209 83 86 152 161 153 166 18 46 22 -46 22
-445 l0 -455 418 2 417 2 0 1160 0 1160 -425 2 -425 3 -45 -68 c-107 -159
-352 -512 -358 -516 -4 -2 -97 127 -207 287 l-201 292 -425 3 -426 2 -1 -1164z"/>
</g>
</svg>
